<?xml version="1.0" encoding="UTF-8"?>
<svg width="231px" height="196px" viewBox="0 0 231 196" version="1.1" xmlns="http://www.w3.org/2000/svg" xmlns:xlink="http://www.w3.org/1999/xlink">
    <!-- Generator: Sketch 51.2 (57519) - http://www.bohemiancoding.com/sketch -->
    <title>Group 2</title>
    <desc>Created with Sketch.</desc>
    <defs></defs>
    <g id="mobileAPPX" stroke="none" stroke-width="1" fill="none" fill-rule="evenodd">
        <g id="CNHouRG" transform="translate(-72.000000, -173.000000)">
            <g id="Group-2" transform="translate(72.000000, 173.000000)">
                <path d="M83.4765625,172.03125 C115.751953,192.15625 230.621094,221.027344 230.621094,151.628906 C230.621094,82.2304688 217.332031,63.1445313 134.789062,13.9257812 C52.2460937,-35.2929688 0.8828125,65.0359486 0.8828125,119.988281 C0.8828125,174.940614 51.2011719,151.90625 83.4765625,172.03125 Z" id="Oval" fill-opacity="0.0773607337" fill="#3188B8" fill-rule="nonzero"></path>
                <path d="M114.974555,124.623445 C116.3005,123.147 116.1715,120.8895 114.702445,119.563555 C112.315945,117.420945 109.434945,115.887055 106.374555,115.120445 L96.757,112.7195 C103.3145,111.243055 106.783055,109.2365 106.955055,109.129 C107.944055,108.541445 108.546055,107.466445 108.6465,106.3125 C108.746945,105.165945 108.238,103.9905 107.363555,103.238 C107.3135,103.202055 102.476,98.8879453 102.476,84.2249453 C102.476,69.4470547 98.649,61.9509453 91.1025,61.9509453 L90.9735,61.9509453 C88.5369453,59.765 86.3654453,58.8334453 81.75,58.8334453 C75.2499453,58.8334453 61.024,65.2330547 61.024,84.2249453 C61.024,98.8449453 56.2150547,103.180555 56.2295,103.180555 C55.2690547,103.897445 54.7389453,105.036945 54.8034453,106.2265 C54.8605547,107.416055 55.5055547,108.498445 56.5305,109.114555 C56.7095547,109.222055 60.1354453,111.243055 66.7285547,112.726555 L57.1325,115.120445 C48.425,117.299 42.3334453,125.096445 42.3334453,134.083445 C42.3334453,136.061445 43.9385547,137.666555 45.9165547,137.666555 L100.075055,137.666555 C102.053055,137.666555 103.6585,136.061445 103.6585,134.083445 C103.6585,132.105445 102.053055,130.5 100.075055,130.5 L50.0304453,130.492945 C51.2559453,126.400555 54.5595547,123.147 58.874,122.072 L71.7165547,118.8685 C72.9995,118.546 74.0029453,117.549945 74.3254453,116.259945 L75.6584453,110.942055 C75.902,109.960445 75.7229453,108.914 75.1495,108.0755 C74.5834453,107.229945 73.6804453,106.670945 72.6699453,106.5275 C68.9430547,106.0115 66.0479453,105.2375 63.991,104.542445 C66.0335,100.873 68.1979453,94.552 68.1979453,84.232 C68.1979453,69.1749453 79.5210547,66.0070547 81.7570547,66.0070547 C84.9390547,66.0070547 85.2975,66.3655 87.0175,68.0784453 C87.684,68.7449453 88.5940547,69.1245547 89.5474453,69.1245547 L91.1095547,69.1245547 C93.2024453,69.1245547 95.3165,73.7974453 95.3165,84.232 C95.3165,94.5375547 97.4809453,100.865945 99.5160547,104.535055 C97.445,105.223055 94.5495547,106.004445 90.8374453,106.520445 C89.8269453,106.663555 88.931,107.222555 88.3649453,108.068445 C87.7915,108.906945 87.6124453,109.946 87.856,110.935 L89.189,116.259945 C89.5115,117.542555 90.5075547,118.546 91.7975547,118.8685 L104.640445,122.072 C106.596945,122.5665 108.374055,123.5125 109.915,124.895555 C111.391445,126.2215 113.656,126.106945 114.974555,124.623445 Z M194.338445,141.852 C194.223555,141.687055 194.109,141.5295 193.987055,141.371945 C194.41,141.121 194.868555,140.863 195.3345,140.640945 C194.983445,141.171055 194.625,141.565445 194.338445,141.852 Z M190.898445,177.083445 L178.5,177.083445 C178.120055,177.083445 177.740445,177.147945 177.367555,177.2625 C177.267445,177.298445 167.004555,180.666555 157,180.666555 C146.995445,180.666555 136.732555,177.298445 136.625055,177.276945 C136.532,177.248055 136.431555,177.276945 136.331445,177.255445 C136.059,177.190945 135.793945,177.0905 135.5,177.0905 L123.087445,177.0905 C122.1485,174.947555 121.1595,170.009945 121.1595,162.764445 C121.1595,161.624945 121.2455,160.413555 121.3745,159.188055 C126.1905,159.324445 131.916555,160.951055 131.916555,162.757055 C131.916555,164.735055 133.522,166.3405 135.5,166.3405 C137.478,166.3405 139.083445,164.735055 139.083445,162.757055 C139.083445,153.9995 127.258445,152.387 122.779055,152.086 C123.1805,150.7745 123.660555,149.541945 124.205445,148.380945 C124.2125,148.380945 124.219555,148.388 124.226945,148.388 C125.230055,148.531445 148.887445,152 157,152 C165.112555,152 188.769945,148.531445 189.773055,148.380945 C189.780445,148.380945 189.780445,148.373555 189.7875,148.373555 C190.332055,149.534555 190.812445,150.767445 191.213555,152.078945 C186.7345,152.379945 174.916555,153.9995 174.916555,162.75 C174.916555,164.728 176.522,166.333445 178.5,166.333445 C180.478,166.333445 182.083445,164.728 182.083445,162.75 C182.083445,160.908055 187.773555,159.3315 192.618445,159.181 C192.747445,160.4065 192.833445,161.617555 192.833445,162.75 C192.833445,170.002555 191.837055,174.9405 190.898445,177.083445 Z M182.083445,187.833445 L189.25,187.833445 L189.25,184.25 L182.083445,184.25 L182.083445,187.833445 Z M124.742945,187.8405 L131.9095,187.8405 L131.9095,184.25 L124.742945,184.25 L124.742945,187.8405 Z M119.6545,141.859055 C119.425055,141.629945 119.074,141.257055 118.658445,140.648 C119.131445,140.870055 119.582945,141.121 120.005555,141.371945 C119.891,141.536555 119.769055,141.694445 119.6545,141.859055 Z M139.893055,125.454555 C141.233445,124.838445 148.880055,123.333445 157,123.333445 C165.119945,123.333445 172.766555,124.838445 174.085445,125.440445 C176.8015,126.802 183.108055,133.947055 185.6165,141.737445 C178.879945,142.683445 162.9555,144.833445 157,144.833445 C151.0445,144.833445 135.113,142.683445 128.376445,141.737445 C130.884555,133.947055 137.191445,126.802 139.893055,125.454555 Z M198.745945,147.556555 C199.2475,147.133945 203.583445,143.256555 203.583445,137.666555 C203.583445,134.671 201.3545,132.578445 198.165445,132.578445 C196.3665,132.578445 193.284945,133.502945 190.633055,135.029445 C187.128555,127.633445 181.395445,121.075945 177.288945,119.033445 C174.572555,117.678945 165.3205,116.166555 157,116.166555 C148.6795,116.166555 139.427445,117.678945 136.704,119.033445 C132.611945,121.075945 126.8785,127.633445 123.366945,135.029445 C120.708,133.502945 117.626445,132.578445 115.8275,132.578445 C114.465945,132.578445 113.297555,132.9295 112.358945,133.639 C111.111945,134.577945 110.416555,136.011055 110.416555,137.666555 C110.416555,143.256555 114.759555,147.133945 115.254055,147.556555 C115.641055,147.886445 116.0855,148.094055 116.544055,148.2375 C114.831445,152.996055 114,158.263555 114,162.75 C114,168.1035 114.4945,177.233945 117.583445,181.899445 L117.583445,187.833445 C117.583445,191.853945 120.7295,195 124.75,195 L131.916555,195 C135.937055,195 139.083445,191.853945 139.083445,187.833445 L139.083445,185.403945 C143.412,186.486 150.163,187.833445 157,187.833445 C163.837,187.833445 170.588,186.486 174.916555,185.403945 L174.916555,187.833445 C174.916555,191.853945 178.062945,195 182.083445,195 L189.25,195 C193.2705,195 196.416555,191.853945 196.416555,187.833445 L196.416555,181.899445 C199.5055,177.233945 200,168.1035 200,162.75 C200,158.263555 199.168555,152.989 197.455945,148.2375 C197.9145,148.094055 198.358945,147.886445 198.745945,147.556555 Z M182.083445,72.5430547 L167.75,72.5430547 C165.772,72.5430547 164.166555,74.1485 164.166555,76.1265 C164.166555,78.1045 165.772,79.7099453 167.75,79.7099453 L182.083445,79.7099453 C184.061445,79.7099453 185.666555,78.1045 185.666555,76.1265 C185.666555,74.1485 184.061445,72.5430547 182.083445,72.5430547 Z M164.166555,159.166555 L149.833445,159.166555 C147.855445,159.166555 146.25,160.772 146.25,162.75 C146.25,164.728 147.855445,166.333445 149.833445,166.333445 L164.166555,166.333445 C166.144555,166.333445 167.75,164.728 167.75,162.75 C167.75,160.772 166.144555,159.166555 164.166555,159.166555 Z M35.1665547,40.9165547 C35.1665547,34.9899453 39.9899453,30.1665547 45.9165547,30.1665547 L182.083445,30.1665547 C188.010055,30.1665547 192.833445,34.9899453 192.833445,40.9165547 L192.833445,44.5 L35.1665547,44.5 L35.1665547,40.9165547 Z M102.519,144.833445 L45.9165547,144.833445 C39.9899453,144.833445 35.1665547,140.010055 35.1665547,134.083445 L35.1665547,51.6665547 L192.833445,51.6665547 L192.833445,121.993055 C192.833445,123.971055 194.438555,125.5765 196.416555,125.5765 C198.394555,125.5765 200,123.971055 200,121.993055 L200,40.9165547 C200,31.0339453 191.966055,23 182.083445,23 L45.9165547,23 C36.0339453,23 28,31.0339453 28,40.9165547 L28,134.083445 C28,143.966055 36.0339453,152 45.9165547,152 L102.519,152 C104.504055,152 106.102445,150.394555 106.102445,148.416555 C106.102445,146.438555 104.497,144.833445 102.519,144.833445 Z M131.916555,80.3334453 L153.416555,80.3334453 C155.394555,80.3334453 157,78.728 157,76.75 C157,74.772 155.394555,73.1665547 153.416555,73.1665547 L131.916555,73.1665547 C129.938555,73.1665547 128.333445,74.772 128.333445,76.75 C128.333445,78.728 129.938555,80.3334453 131.916555,80.3334453 Z M131.916555,101.833445 L182.083445,101.833445 C184.061445,101.833445 185.666555,100.228 185.666555,98.25 C185.666555,96.272 184.061445,94.6665547 182.083445,94.6665547 L131.916555,94.6665547 C129.938555,94.6665547 128.333445,96.272 128.333445,98.25 C128.333445,100.228 129.938555,101.833445 131.916555,101.833445 Z" id="driver-license" fill="#632678"></path>
            </g>
        </g>
    </g>
</svg>