<?xml version="1.0" encoding="UTF-8"?>
<svg width="203px" height="179px" viewBox="0 0 203 179" version="1.1" xmlns="http://www.w3.org/2000/svg" xmlns:xlink="http://www.w3.org/1999/xlink">
    <!-- Generator: Sketch 51.2 (57519) - http://www.bohemiancoding.com/sketch -->
    <title>Group 3</title>
    <desc>Created with Sketch.</desc>
    <defs>
        <polygon id="path-1" points="0.0198046875 0 169 0 169 169 0.0198046875 169"></polygon>
    </defs>
    <g id="mobileAPPX" stroke="none" stroke-width="1" fill="none" fill-rule="evenodd">
        <g id="aceiteDocumentos-Copy" transform="translate(-99.000000, -167.000000)">
            <g id="Group-3" transform="translate(99.000000, 167.000000)">
                <path d="M102.655097,178.582031 C149.599301,178.582031 202.417969,128.795766 202.417969,81.8515625 C202.417969,34.9073588 81.1902975,0.203125 34.2460938,0.203125 C-12.69811,0.203125 6.98828125,40.6573588 6.98828125,87.6015625 C6.98828125,134.545766 55.7108937,178.582031 102.655097,178.582031 Z" id="Oval-3" fill="#EFF6F9" fill-rule="nonzero"></path>
                <g id="paper-plane" transform="translate(0.000000, 5.000000)">
                    <g id="Group-5">
                        <mask id="mask-2" fill="white">
                            <use xlink:href="#path-1"></use>
                        </mask>
                        <g id="Clip-2"></g>
                        <path d="M97.538416,108.716842 L162.398438,15.0858906 L162.398438,128.559818 L97.538416,108.716842 Z M95.5529961,135.764104 L95.5529961,115.013082 L111.723523,119.960293 L95.5529961,135.764104 Z M138.4955,37.9985938 L89.5386426,108.671621 C89.1564121,109.223842 88.9514336,109.879377 88.9514336,110.551086 L88.9514336,130.742295 L74.4864199,104.413613 L138.4955,37.9985938 Z M167.334756,0.433722656 C166.305242,-0.153816406 165.039063,-0.143914062 164.019121,0.45946875 L103.530984,36.2280547 C101.961793,37.1559043 101.44192,39.1799434 102.36977,40.7491348 C103.297289,42.3179961 105.321328,42.8378691 106.89085,41.9103496 L150.290182,16.2471055 L69.4520684,100.124248 L29.2459121,87.8235566 L81.7167813,56.7962129 C83.2859727,55.8680332 83.8058457,53.8439941 82.8779961,52.2748027 C81.9504766,50.7059414 79.9261074,50.1854082 78.356916,51.1135879 L19.4449023,85.9497031 C18.3193359,86.6154707 17.6925176,87.8826406 17.8473242,89.181498 C18.0021309,90.4803555 18.9088555,91.5649922 20.1591914,91.9475527 L68.1753262,106.63735 L89.35875,145.194766 C89.3808652,145.234705 89.4036406,145.268373 89.4270762,145.29841 C89.7805898,145.88793 90.3103652,146.369514 90.9711816,146.647439 C91.3847695,146.821391 91.8194824,146.906221 92.2512246,146.906221 C93.0972148,146.906221 93.930002,146.580764 94.5588008,145.965828 L118.916586,122.160594 L164.73341,136.177691 C165.050285,136.274404 165.375412,136.322266 165.698889,136.322266 C166.397334,136.322266 167.087197,136.100453 167.662193,135.674982 C168.503563,135.052455 169,134.067832 169,133.021484 L169,3.30078125 C169,2.1154707 168.36427,1.02093164 167.334756,0.433722656 Z" id="Fill-1" fill="#632678" mask="url(#mask-2)"></path>
                        <path d="M54.2724355,114.727564 C52.9831504,113.438609 50.8937559,113.438609 49.6041406,114.727564 L18.7906875,145.541018 C17.5017324,146.829973 17.5017324,148.920027 18.7906875,150.209313 C19.4356602,150.853625 20.2803301,151.175781 21.125,151.175781 C21.9696699,151.175781 22.8143398,150.853625 23.4589824,150.208982 L54.2724355,119.395529 C55.5613906,118.106904 55.5613906,116.01685 54.2724355,114.727564" id="Fill-3" fill="#632678" mask="url(#mask-2)"></path>
                        <path d="M8.5585957,155.773439 L0.966798828,163.365236 C-0.32215625,164.654191 -0.32215625,166.744246 0.966798828,168.033531 C1.61144141,168.677844 2.45611133,169 3.30078125,169 C4.14545117,169 4.99012109,168.677514 5.63476367,168.033201 L13.2265605,160.441404 C14.5155156,159.152449 14.5155156,157.062395 13.2265605,155.773109 C11.9372754,154.484814 9.84788086,154.484814 8.5585957,155.773439" id="Fill-4" fill="#632678" mask="url(#mask-2)"></path>
                    </g>
                    <path d="M41.879,163.879 C41.321,164.437 41,165.208 41,166 C41,166.789 41.3207,167.563 41.879,168.121 C42.437,168.679 43.211,169 44,169 C44.789,169 45.563,168.679 46.1207,168.121 C46.6787,167.563 47,166.789 47,166 C47,165.208 46.679,164.437 46.1207,163.879 C45.563,163.321 44.789,163 44,163 C43.2077,163 42.437,163.321 41.879,163.879 Z" id="Fill-6" fill="#632678"></path>
                    <path d="M50.9699873,154.34611 C49.6766709,155.63944 49.6766709,157.736589 50.9699873,159.029919 C51.616811,159.67675 52.4643389,160 53.3118669,160 C54.1593948,160 55.0069227,159.676419 55.6537465,159.029919 L72.0300127,142.653808 C73.3233291,141.360477 73.3233291,139.263328 72.0300127,137.969998 C70.7373588,136.676667 68.6408947,136.676667 67.3462535,137.969998 L50.9699873,154.34611 Z" id="Fill-7" fill="#632678"></path>
                    <path d="M122.357142,136.967864 L105.968119,153.356769 C104.677294,154.647586 104.677294,156.740658 105.968119,158.031805 C106.613697,158.677048 107.459593,159 108.305489,159 C109.151384,159 109.99728,158.677048 110.642858,158.031805 L127.031881,141.6429 C128.322706,140.352084 128.322706,138.259011 127.031881,136.967864 C125.740725,135.677379 123.648298,135.677379 122.357142,136.967864" id="Fill-8" fill="#632678"></path>
                    <path d="M93.121,49.121 C93.6787,48.563 94,47.792 94,47.003 C94,46.211 93.679,45.437 93.121,44.879 C92.563,44.321 91.789,44 91,44 C90.211,44 89.437,44.321 88.879,44.879 C88.3213,45.437 88,46.211 88,47.003 C88,47.792 88.321,48.563 88.879,49.121 C89.437,49.682 90.211,50 91,50 C91.789,50 92.563,49.682 93.121,49.121 Z" id="Fill-9" fill="#632678"></path>
                </g>
            </g>
        </g>
    </g>
</svg>