<?xml version="1.0" encoding="UTF-8"?>
<svg width="226px" height="210px" viewBox="0 0 226 210" version="1.1" xmlns="http://www.w3.org/2000/svg" xmlns:xlink="http://www.w3.org/1999/xlink">
    <!-- Generator: Sketch 51.2 (57519) - http://www.bohemiancoding.com/sketch -->
    <title>Group 2</title>
    <desc>Created with Sketch.</desc>
    <defs>
        <polygon id="path-1" points="0.02015625 0 171.999664 0 171.999664 172 0.02015625 172"></polygon>
    </defs>
    <g id="mobileAPPX" stroke="none" stroke-width="1" fill="none" fill-rule="evenodd">
        <g id="aceiteDocumentos" transform="translate(-88.000000, -168.000000)">
            <g id="Group-2" transform="translate(88.000000, 168.000000)">
                <g id="cadastroIcon" fill="#EFF6F9" fill-rule="nonzero">
                    <path d="M175.84375,189.199219 C209.492188,128.441406 149.34375,170.160156 211.941406,114 C274.539063,57.8398437 108.273832,0 60.7773438,0 C13.2808553,0 50.578125,66.5035115 7.515625,114 C-35.546875,161.496488 142.195312,249.957031 175.84375,189.199219 Z" id="Oval-2"></path>
                </g>
                <g id="login" transform="translate(26.000000, 23.000000)">
                    <mask id="mask-2" fill="white">
                        <use xlink:href="#path-1"></use>
                    </mask>
                    <g id="Clip-2"></g>
                    <path d="M84.4247891,77.8985313 C84.9495234,77.889125 85.4745938,77.8813984 86,77.8813984 C86.5240625,77.8813984 87.0471172,77.8894609 87.5701719,77.8988672 C104.626391,77.0768281 118.25,62.9436016 118.25,45.6875 C118.25,27.9046484 103.782852,13.4375 86,13.4375 C68.2171484,13.4375 53.75,27.9046484 53.75,45.6875 C53.75,62.9419219 67.3709219,77.0741406 84.4247891,77.8985313 Z M50.8945313,165.28125 C50.8945313,168.992016 47.8865469,172 44.1757813,172 L20.3890547,172 C14.2316563,172 8.47267969,169.261102 4.58924219,164.485414 C0.685984375,159.686211 -0.82775,153.452555 0.436046875,147.383508 C4.46830469,128.014359 15.1501094,110.388055 30.5132031,97.7510938 C38.8921563,90.859 48.466375,85.6358437 58.6691328,82.2771406 C47.5324688,73.9371563 40.3125,60.6397422 40.3125,45.6875 C40.3125,20.4955469 60.8077109,0 86,0 C111.192289,0 131.6875,20.4955469 131.6875,45.6875 C131.6875,60.6263047 124.479961,73.9133047 113.360094,82.2546328 C114.485484,82.6255078 115.6055,83.0165391 116.717789,83.4344453 C120.191719,84.7388906 121.950352,88.6125859 120.645906,92.0861797 C119.341461,95.5601094 115.467766,97.3194141 111.994172,96.0142969 C104.231664,93.0993672 96.0764453,91.5295313 87.7273906,91.3390547 C87.1536094,91.3605547 86.5784844,91.375 86,91.375 C85.4265547,91.375 84.8564688,91.3608906 84.2877266,91.3397266 C50.1443828,92.1338828 20.5684453,116.608609 13.5913594,150.12207 C13.1556484,152.214625 13.6746719,154.35925 15.0143906,156.007359 C15.7904063,156.961758 17.5208203,158.5625 20.3890547,158.5625 L44.1757813,158.5625 C47.8865469,158.5625 50.8945313,161.570484 50.8945313,165.28125 Z M166.856461,115.766414 C163.9805,109.333211 157.502281,105.164898 150.336398,105.148437 L129.383305,105.148437 C129.368188,105.148437 129.354078,105.148437 129.338625,105.148437 C121.780031,105.148437 115.185578,109.602969 112.532008,116.505477 C112.178938,117.42393 111.747258,118.580898 111.296766,119.929687 L67.3070938,119.929687 C65.4906797,119.929687 63.7518672,120.665055 62.4863906,121.968156 L50.9449219,133.856312 C48.4028828,136.474609 48.4156484,140.643258 50.9734766,143.245766 L62.7312891,155.209172 C63.9944141,156.494469 65.7211328,157.218414 67.5231016,157.218414 L89.3590391,157.218414 C93.0698047,157.218414 96.0777891,154.21043 96.0777891,150.499664 C96.0777891,146.788898 93.0698047,143.780914 89.3590391,143.780914 L70.3402734,143.780914 L65.1574297,138.507367 L70.1484531,133.367187 L116.336836,133.367187 C119.432164,133.367187 122.126719,131.252461 122.862758,128.246156 C123.406305,126.026617 124.088258,123.892742 125.07457,121.327187 C125.724945,119.635406 127.358273,118.585937 129.35475,118.585937 C129.359117,118.585937 129.363484,118.585937 129.367852,118.585937 L150.320609,118.585937 C152.220672,118.590305 153.856016,119.611555 154.588695,121.250594 C156.392344,125.285875 158.546039,131.532969 158.562164,138.378703 C158.578289,145.275164 156.426945,151.665367 154.618594,155.811844 C153.889609,157.484141 152.240492,158.5625 150.399219,158.5625 C150.395523,158.5625 150.391828,158.5625 150.388133,158.5625 L129.182078,158.5625 C127.323336,158.558133 125.582172,157.362195 124.849828,155.586766 C124.06407,153.681664 123.383125,151.506469 122.768023,148.936211 C121.904328,145.32757 118.277547,143.10232 114.67025,143.96568 C111.061273,144.829375 108.836023,148.455148 109.699719,152.063789 C110.47943,155.322047 111.372016,158.150305 112.427867,160.710148 C115.249406,167.55118 121.813625,171.982531 129.166625,171.999664 L150.37268,171.999664 C150.387125,171.999664 150.400563,171.999664 150.415008,171.999664 C157.587609,171.999328 164.069859,167.756773 166.936414,161.182141 C169.258414,155.857195 172.0215,147.572977 171.999664,138.346789 C171.978164,129.145797 169.190891,120.988898 166.856461,115.766414 Z M144.789063,145.125 C141.078297,145.125 138.070313,142.117016 138.070313,138.40625 C138.070313,134.695484 141.078297,131.6875 144.789063,131.6875 C148.499828,131.6875 151.507813,134.695484 151.507813,138.40625 C151.507813,142.117016 148.499828,145.125 144.789063,145.125 Z" id="Fill-1" fill="#632678" mask="url(#mask-2)"></path>
                </g>
            </g>
        </g>
    </g>
</svg>