<?xml version="1.0" encoding="UTF-8"?>
<svg width="48px" height="48px" viewBox="0 0 48 48" version="1.1" xmlns="http://www.w3.org/2000/svg" xmlns:xlink="http://www.w3.org/1999/xlink">
    <!-- Generator: Sketch 51.2 (57519) - http://www.bohemiancoding.com/sketch -->
    <title>iconeAddCard</title>
    <desc>Created with Sketch.</desc>
    <defs>
        <polygon id="path-1" points="0.0052734375 0.0383203125 45 0.0383203125 45 34.6289062 0.0052734375 34.6289062"></polygon>
    </defs>
    <g id="iconeAddCard" stroke="none" stroke-width="1" fill="none" fill-rule="evenodd">
        <g id="credit-card" transform="translate(2.000000, 7.000000)">
            <g id="Group-3">
                <mask id="mask-2" fill="white">
                    <use xlink:href="#path-1"></use>
                </mask>
                <g id="Clip-2"></g>
                <path d="M42.8532715,30.8721094 C42.8532715,31.7598926 42.1309863,32.4821777 41.2432031,32.4821777 L12.0928711,32.4821777 C11.2050879,32.4821777 10.4828027,31.7598926 10.4828027,30.8721094 L10.4828027,14.0154785 C10.4828027,13.1720801 11.135127,12.4793262 11.9614746,12.4120898 L35.5904297,12.4120898 C35.6300684,12.4120898 35.6690039,12.4096289 35.7074121,12.405498 L41.2431152,12.405498 C42.1308984,12.405498 42.8531836,13.1276953 42.8531836,14.0154785 L42.8531836,30.8721094 L42.8532715,30.8721094 Z M3.75679688,22.261377 C2.86901367,22.261377 2.14672852,21.5390918 2.14672852,20.6513086 L2.14672852,12.4120898 L8.69633789,12.4120898 C8.465625,12.8986523 8.33607422,13.4422559 8.33607422,14.0154785 L8.33607422,22.261377 L3.75679688,22.261377 Z M3.75679688,2.18504883 L32.9073047,2.18504883 C33.7950879,2.18504883 34.517373,2.90733398 34.517373,3.79511719 L34.517373,5.29374023 L2.14672852,5.29374023 L2.14672852,3.79511719 C2.14672852,2.90733398 2.86901367,2.18504883 3.75679688,2.18504883 Z M12.0928711,10.2586816 C12.0203613,10.2586816 11.9483789,10.2613184 11.8768359,10.2653613 L2.14672852,10.2653613 L2.14672852,7.44055664 L34.517373,7.44055664 L34.517373,10.2586816 L12.0928711,10.2586816 Z M41.2432031,10.2586816 L36.6641016,10.2586816 L36.6641016,3.79511719 C36.6641016,1.72362305 34.9787988,0.0383203125 32.9073047,0.0383203125 L3.75679688,0.0383203125 C1.68530273,0.0383203125 0,1.72362305 0,3.79511719 L0,20.6513086 C0,22.7228027 1.68530273,24.4081055 3.75679688,24.4081055 L8.33607422,24.4081055 L8.33607422,30.8721094 C8.33607422,32.9436035 10.021377,34.6289062 12.0928711,34.6289062 L41.2432031,34.6289062 C43.3146973,34.6289062 45,32.9436035 45,30.8721094 L45,14.0154785 C45,11.9439844 43.3146973,10.2586816 41.2432031,10.2586816 Z" id="Fill-1" fill="#FFFFFF" mask="url(#mask-2)"></path>
            </g>
            <path d="M29.9013574,25.4713184 C28.2320508,25.4713184 26.8739648,24.1132324 26.8739648,22.4438379 C26.8739648,20.7745312 28.2320508,19.4163574 29.9013574,19.4163574 C31.5706641,19.4163574 32.92875,20.7745312 32.92875,22.4438379 C32.92875,24.1132324 31.5706641,25.4713184 29.9013574,25.4713184 Z M20.4068848,22.4438379 C20.4068848,20.7741797 21.7652344,19.4158301 23.4348926,19.4158301 C24.1262402,19.4158301 24.7802344,19.6475098 25.3083691,20.0655176 C24.9379102,20.7781348 24.7271484,21.5866406 24.7271484,22.4436621 C24.7271484,23.3008594 24.9379102,24.1092773 25.3083691,24.8219824 C24.7803223,25.240166 24.1262402,25.4716699 23.4348926,25.4716699 C21.7652344,25.4717578 20.4068848,24.1134082 20.4068848,22.4438379 Z M29.9013574,17.2696289 C28.6803809,17.2696289 27.557666,17.6956348 26.6718164,18.4056152 C25.7636426,17.6740137 24.6319629,17.2691016 23.4348926,17.2691016 C20.5815234,17.2691016 18.2601562,19.5904687 18.2601562,22.4438379 C18.2601562,25.2971191 20.5815234,27.6184863 23.4348926,27.6184863 C24.6319629,27.6184863 25.7636426,27.2136621 26.6718164,26.4821484 C27.557666,27.192041 28.6803809,27.6180469 29.9013574,27.6180469 C32.7544629,27.6180469 35.0755664,25.2969434 35.0755664,22.4438379 C35.0755664,19.5907324 32.7544629,17.2696289 29.9013574,17.2696289 Z" id="Fill-4" fill="#FFFFFF"></path>
        </g>
    </g>
</svg>