<?xml version="1.0" encoding="UTF-8"?>
<svg width="48px" height="48px" viewBox="0 0 48 48" version="1.1" xmlns="http://www.w3.org/2000/svg" xmlns:xlink="http://www.w3.org/1999/xlink">
    <!-- Generator: Sketch 51.2 (57519) - http://www.bohemiancoding.com/sketch -->
    <title>iconeAddconvictions</title>
    <desc>Created with Sketch.</desc>
    <defs>
        <polygon id="path-1" points="0.0132631579 0.186347368 44.3745474 0.186347368 44.3745474 41.9997789 0.0132631579 41.9997789"></polygon>
    </defs>
    <g id="iconeAddconvictions" stroke="none" stroke-width="1" fill="none" fill-rule="evenodd">
        <g id="directions" transform="translate(2.000000, 3.000000)">
            <mask id="mask-2" fill="white">
                <use xlink:href="#path-1"></use>
            </mask>
            <g id="Clip-2"></g>
            <path d="M43.8382737,3.45372632 L39.4026316,0.404084211 C39.1961684,0.262389474 38.9519053,0.186347368 38.7014526,0.186347368 L22.4834842,0.186347368 C21.8004316,0.186347368 21.2460316,0.740747368 21.2460316,1.42468421 L21.2460316,9.81783158 L5.67309474,9.81783158 C5.42264211,9.81783158 5.17837895,9.89365263 4.97191579,10.0353474 L0.536273684,13.0843263 C0.200273684,13.3157684 0,13.6973053 0,14.1049263 C0,14.5125474 0.200273684,14.8940842 0.536273684,15.1246421 L4.97191579,18.1745053 C5.17837895,18.3162 5.42264211,18.3922421 5.67309474,18.3922421 L21.2460316,18.3922421 L21.2460316,39.5242105 L16.0780421,39.5242105 C15.3943263,39.5242105 14.8399263,40.0786105 14.8399263,40.7625474 C14.8399263,41.4456 15.3943263,41.9997789 16.0780421,41.9997789 L28.4112316,41.9997789 C29.0951684,41.9997789 29.6486842,41.4456 29.6486842,40.7625474 C29.6486842,40.0786105 29.0951684,39.5242105 28.4112316,39.5242105 L23.7216,39.5242105 L23.7216,8.76075789 L38.7014526,8.76075789 C38.9519053,8.76075789 39.1961684,8.68493684 39.4026316,8.54324211 L43.8382737,5.49337895 C44.1742737,5.26282105 44.3745474,4.88106316 44.3745474,4.47366316 C44.3745474,4.06604211 44.1742737,3.68428421 43.8382737,3.45372632 Z M6.05816842,15.9164526 L3.42277895,14.1049263 L6.05816842,12.2934 L21.2460316,12.2934 L21.2460316,15.9164526 L6.05816842,15.9164526 Z M38.3172632,6.28518947 L23.7216,6.28518947 L23.7216,2.66191579 L38.3172632,2.66191579 L40.9517684,4.47366316 L38.3172632,6.28518947 Z" id="Fill-1" fill="#FFFFFF" mask="url(#mask-2)"></path>
        </g>
    </g>
</svg>