<?xml version="1.0" encoding="UTF-8"?>
<svg width="40px" height="48px" viewBox="0 0 40 48" version="1.1" xmlns="http://www.w3.org/2000/svg" xmlns:xlink="http://www.w3.org/1999/xlink">
    <!-- Generator: Sketch 51.2 (57519) - http://www.bohemiancoding.com/sketch -->
    <title>money-bag-with-dollar-symbol</title>
    <desc>Created with Sketch.</desc>
    <defs>
        <polygon id="path-1" points="6.08531496e-05 0.00225352877 39.6950147 0.00225352877 39.6950147 47.8594699 6.08531496e-05 47.8594699"></polygon>
    </defs>
    <g id="mobileAPPX" stroke="none" stroke-width="1" fill="none" fill-rule="evenodd">
        <g id="homeAppX" transform="translate(-35.000000, -550.000000)">
            <g id="money-bag-with-dollar-symbol" transform="translate(35.000000, 550.000000)">
                <path d="M23.5838164,31.9678438 C23.3790714,31.7850332 23.120319,31.6483856 22.8526997,31.5342277 C22.2702246,31.286184 21.6327746,31.1355954 21,31 L21,35 C22.0271101,34.9054383 23.205925,34.6013678 23.7450328,33.8188334 C24.0026567,33.4454528 24.0536012,32.9860591 23.9491329,32.570461 C23.8923847,32.344907 23.7746967,32.1384231 23.5838164,31.9678438 Z" id="Fill-1" fill="#FFFFFF"></path>
                <path d="M23,34.0295 C23.0055,34.0195 23.0095,34.012 23.0155,34 C23.0095,34.01 23.0055,34.0195 23,34.0295 Z" id="Fill-2" fill="#FFFFFF"></path>
                <path d="M16.2699064,25.0963663 C16.1260388,25.3286337 16.0356941,25.5925872 16.010971,25.8736919 C15.9858533,26.1546512 15.9996615,26.4675872 16.0967129,26.7321221 C16.1887672,26.9847384 16.381292,27.1709302 16.5806552,27.3209302 C16.8035579,27.4889535 17.0497373,27.6200581 17.2998618,27.730814 C17.5094824,27.824564 17.7457988,27.9136628 18,28 L18,24 C17.3573299,24.1515988 16.6546931,24.4752907 16.2699064,25.0963663 Z" id="Fill-3" fill="#FFFFFF"></path>
                <g id="Group-7">
                    <mask id="mask-2" fill="white">
                        <use xlink:href="#path-1"></use>
                    </mask>
                    <g id="Clip-5"></g>
                    <path d="M23.3059018,33.7423109 C23.2864018,33.7773109 23.2649018,33.8143109 23.2434018,33.8533109 C23.2689018,33.8088109 23.2884018,33.7753109 23.3059018,33.7423109 Z" id="Fill-4" fill="#FFFFFF" mask="url(#mask-2)"></path>
                    <path d="M22.3547683,10.4152962 C25.9954487,7.35695015 28.4279648,0.466768328 26.9306745,0.165536657 C24.9418416,-0.234791789 20.6222639,1.5213607 18.5344751,1.83103812 C15.5729736,2.18843402 12.3481056,-1.38017595 10.5379003,0.609219941 C9.06594721,2.22629912 11.5930557,8.10805865 15.5465103,10.6704985 C3.75061584,16.4680821 -12.8292317,45.5724106 16.0959062,47.6844106 C56.1186158,50.606217 36.0775601,16.0645161 22.3547683,10.4152962 Z M25.7919062,33.3684457 C25.668739,34.5027097 25.067261,35.5287273 24.1687742,36.2253607 C23.2197537,36.9611261 22.0293255,37.3031789 20.8466393,37.3993196 L20.8466393,38.6529501 C20.8466393,38.9883871 20.699824,39.3128446 20.4489853,39.5349677 C20.103695,39.8401408 19.5962463,39.9154487 19.1777595,39.7224633 C18.7637771,39.5322933 18.4921056,39.1077537 18.4921056,38.6529501 L18.4921056,37.2827683 C18.2892669,37.2443402 18.0879765,37.1981701 17.8889384,37.143695 C16.7836716,36.8396481 15.758217,36.2480235 15.0093607,35.3720587 C14.6364809,34.9354135 14.331871,34.4400704 14.1218534,33.9050323 C14.066956,33.7653959 14.0179707,33.6229443 13.9750381,33.4789443 C13.9360469,33.3485982 13.8959296,33.216563 13.8821349,33.080868 C13.8590499,32.8525513 13.9040938,32.6205748 14.0102287,32.417173 C14.2285513,31.9998123 14.6882815,31.7479883 15.1578651,31.7897947 C15.6202698,31.8310381 16.0249619,32.1515543 16.170651,32.592 C16.215695,32.7278358 16.2459589,32.8669091 16.2960704,33.0010557 C16.3460411,33.1340762 16.4065689,33.2638592 16.4775132,33.3870264 C16.6171496,33.6301232 16.7925396,33.8544985 16.9942522,34.0490323 C17.4100645,34.4493607 17.9400352,34.7100528 18.4921056,34.8650323 L18.4921056,30.2072023 C17.412176,29.9273666 16.2970557,29.5667331 15.4051848,28.8733372 C14.9719179,28.5356481 14.6041056,28.1173021 14.363261,27.6212551 C14.1091848,27.0979003 14.0036129,26.5150029 13.9998123,25.9360469 C13.9954487,25.3482229 14.1070733,24.7647625 14.3522815,24.2293021 C14.5821466,23.7277654 14.9125161,23.2774663 15.3183343,22.9041642 C16.1854311,22.1063226 17.336868,21.6609501 18.4921056,21.4975249 L18.4921056,20.1960352 C18.4921056,19.860739 18.6389208,19.5362815 18.8901818,19.3141584 C19.2349091,19.0089853 19.7419355,18.9336774 20.1614076,19.1266628 C20.5749677,19.3168328 20.8466393,19.7408094 20.8466393,20.1960352 L20.8466393,21.4904868 C21.0004927,21.5096305 21.1539238,21.5332786 21.3067918,21.560868 C22.4411965,21.7659589 23.550827,22.2344164 24.3804809,23.0525279 C24.7730674,23.4396246 25.0947097,23.901607 25.3213372,24.4046921 C25.3845396,24.5454545 25.4395777,24.6888915 25.4872962,24.8351437 C25.5319179,24.9721056 25.5769619,25.112305 25.5983578,25.2553196 C25.632563,25.4823695 25.5979355,25.7177243 25.4999648,25.9260528 C25.3003636,26.3528446 24.8533021,26.6243754 24.3821701,26.6041056 C23.9197654,26.583695 23.5007155,26.2824633 23.3351789,25.8501818 C23.2857713,25.7215249 23.2609971,25.5856891 23.2110264,25.4570323 C23.1597889,25.32739 23.0943343,25.2036598 23.0184633,25.0865455 C22.871085,24.8587918 22.6803519,24.6642581 22.4625924,24.503085 C21.9903343,24.1549795 21.4184164,23.9735367 20.8466393,23.8719062 L20.8466393,28.3290088 C21.5262405,28.4917302 22.2064047,28.6693724 22.8574311,28.9261232 C23.8416422,29.314346 24.7741935,29.9092082 25.3107801,30.8472493 C25.227871,30.7015601 25.1465103,30.5586862 25.3141584,30.8523167 C25.4780059,31.1403167 25.3998827,31.0034956 25.3173959,30.8587918 C25.7447507,31.6121525 25.8849501,32.5127507 25.7919062,33.3684457 Z" id="Fill-6" fill="#FFFFFF" mask="url(#mask-2)"></path>
                </g>
                <path d="M23.0625,34 C23.039,34.043 23.0155,34.082 23,34.1115 C23.0135,34.086 23.035,34.047 23.0625,34 Z" id="Fill-8" fill="#000000"></path>
            </g>
        </g>
    </g>
</svg>