<?xml version="1.0" encoding="UTF-8"?>
<svg width="48px" height="48px" viewBox="0 0 48 48" version="1.1" xmlns="http://www.w3.org/2000/svg" xmlns:xlink="http://www.w3.org/1999/xlink">
    <!-- Generator: Sketch 51.2 (57519) - http://www.bohemiancoding.com/sketch -->
    <title>iconeAddAddress</title>
    <desc>Created with Sketch.</desc>
    <defs>
        <polygon id="path-1" points="0.00526315789 0.0876315789 31.3647368 0.0876315789 31.3647368 45 0.00526315789 45"></polygon>
    </defs>
    <g id="iconeAddAddress" stroke="none" stroke-width="1" fill="none" fill-rule="evenodd">
        <g id="genders" transform="translate(8.000000, 2.000000)">
            <g id="Group-3">
                <mask id="mask-2" fill="white">
                    <use xlink:href="#path-1"></use>
                </mask>
                <g id="Clip-2"></g>
                <path d="M28.7333333,11.4320175 C28.007807,11.4320175 27.4175439,10.8417544 27.4175439,10.1161404 L27.4170175,7.4845614 C27.4170175,7.21850877 27.2566667,6.97859649 27.0108772,6.87684211 C26.765,6.775 26.4820175,6.83122807 26.2939474,7.01947368 L17.8417544,15.4716667 C17.6214912,15.6919298 17.5858772,16.0364912 17.7564912,16.2971053 C20.060614,19.817807 19.57,24.5361404 16.59,27.5161404 C15.3557895,28.7502632 13.8040351,29.5905263 12.1023684,29.9461404 C11.7974561,30.0098246 11.5790351,30.2786842 11.5790351,30.5900877 L11.5790351,35.789386 C11.5790351,36.1527193 11.8735965,36.4472807 12.2369298,36.4472807 L14.8685088,36.4472807 C15.2199123,36.4472807 15.5503509,36.5841228 15.7988596,36.8326316 C16.0473684,37.0811404 16.1842982,37.4115789 16.1842982,37.7630702 C16.1842982,38.4885965 15.5940351,39.0788596 14.8685088,39.0788596 L12.2369298,39.0788596 C11.8735965,39.0788596 11.5790351,39.3734211 11.5790351,39.7367544 L11.5790351,42.3683333 C11.5790351,43.0938596 10.9887719,43.6841228 10.2632456,43.6841228 C9.91175439,43.6841228 9.58140351,43.547193 9.33280702,43.2986842 C9.08429825,43.0501754 8.94745614,42.7197368 8.94745614,42.3683333 L8.94745614,39.7367544 C8.94745614,39.3734211 8.65289474,39.0788596 8.2895614,39.0788596 L5.65798246,39.0788596 C4.93245614,39.0788596 4.34219298,38.4885965 4.34219298,37.7630702 C4.34219298,37.4115789 4.47912281,37.0812281 4.72763158,36.8326316 C4.97614035,36.5841228 5.30657895,36.4472807 5.65798246,36.4472807 L8.2895614,36.4472807 C8.65289474,36.4472807 8.94745614,36.1527193 8.94745614,35.789386 L8.94745614,30.5900877 C8.94745614,30.2785965 8.72903509,30.0098246 8.42412281,29.9461404 C6.72245614,29.5905263 5.17061404,28.7502632 3.93649123,27.5161404 C2.24657895,25.8262281 1.31587719,23.5792982 1.31587719,21.189386 C1.31587719,18.7994737 2.24657895,16.5525439 3.93649123,14.8626316 C5.62640351,13.1727193 7.87324561,12.2421053 10.2631579,12.2421053 C12.0266667,12.2421053 13.7315789,12.7534211 15.1934211,13.7207018 C15.4541228,13.8931579 15.8004386,13.8583333 16.0216667,13.637193 L24.5002632,5.15859649 C24.6884211,4.9704386 24.7447368,4.68754386 24.6428947,4.44166667 C24.5411404,4.19587719 24.3012281,4.03552632 24.0351754,4.03552632 L21.4034211,4.035 C20.6778947,4.035 20.0876316,3.44473684 20.0876316,2.71921053 C20.0876316,1.99368421 20.6778947,1.40342105 21.4034211,1.40342105 L28.075,1.40394737 C29.1633333,1.40394737 30.0486842,2.28929825 30.0486842,3.37763158 L30.0492105,10.1161404 C30.0491228,10.8417544 29.4588596,11.4320175 28.7333333,11.4320175 Z M31.364386,3.37763158 C31.364386,1.56377193 29.8887719,0.0881578947 28.0749123,0.0881578947 L21.4034211,0.0876315789 C19.9523684,0.0876315789 18.7718421,1.26815789 18.7718421,2.71921053 C18.7718421,4.17026316 19.9523684,5.35078947 21.4033333,5.35078947 L22.4470175,5.35096491 L15.4609649,12.3370175 C13.8898246,11.4124561 12.1040351,10.9262281 10.2630702,10.9262281 C7.52175439,10.9262281 4.94447368,11.9937719 3.00605263,13.932193 C1.06754386,15.870614 0,18.4479825 0,21.189386 C0,23.9307895 1.06754386,26.5080702 3.00605263,28.4464912 C4.29412281,29.7345614 5.88438596,30.6486842 7.63157895,31.1103509 L7.63157895,35.1314912 L5.65780702,35.1314912 C4.95491228,35.1314912 4.29412281,35.4052632 3.79710526,35.9022807 C3.30008772,36.399386 3.02631579,37.0601754 3.02631579,37.7630702 C3.02631579,39.2141228 4.20684211,40.3946491 5.65789474,40.3946491 L7.63157895,40.3946491 L7.63157895,42.3683333 C7.63157895,43.0713158 7.90526316,43.7321053 8.40236842,44.2292105 C8.89947368,44.7262281 9.56026316,45 10.2631579,45 C11.7142105,45 12.8947368,43.8194737 12.8947368,42.3684211 L12.8947368,40.3947368 L14.8684211,40.3947368 C16.3194737,40.3947368 17.5,39.2142105 17.5,37.7631579 C17.5,37.0602632 17.2262281,36.399386 16.7292105,35.9023684 C16.2321053,35.4052632 15.5713158,35.1315789 14.8684211,35.1315789 L12.8947368,35.1315789 L12.8947368,31.1104386 C14.6419298,30.6487719 16.232193,29.7346491 17.5202632,28.4465789 C19.1970175,26.7698246 20.247193,24.5488596 20.477193,22.192807 C20.6864912,20.0488596 20.2128947,17.8827193 19.1397368,16.0344737 L26.1014035,9.0727193 L26.1015789,10.1163158 C26.1015789,11.5673684 27.2821053,12.7478947 28.7331579,12.7478947 C30.1842105,12.7478947 31.3647368,11.5673684 31.3647368,10.1163158 L31.364386,3.37763158 Z" id="Fill-1" fill="#FFFFFF" mask="url(#mask-2)"></path>
            </g>
            <path d="M10.2631579,14.8735965 C9.09350877,14.8735965 7.95052632,15.1965789 6.95763158,15.8074561 C6.64815789,15.9978947 6.55175439,16.4031579 6.74210526,16.7125439 C6.93254386,17.0219298 7.3377193,17.1184211 7.64719298,16.9280702 C8.43254386,16.4447368 9.33719298,16.1892982 10.2631579,16.1892982 C13.0201754,16.1892982 15.2631579,18.4322807 15.2631579,21.1892982 C15.2631579,23.9463158 13.0201754,26.1892982 10.2631579,26.1892982 C7.50614035,26.1892982 5.26315789,23.9463158 5.26315789,21.1892982 C5.26315789,20.2632456 5.51859649,19.3586842 6.00192982,18.5733333 C6.19236842,18.2639474 6.09587719,17.8586842 5.78640351,17.6682456 C5.47701754,17.477807 5.07175439,17.5742982 4.88131579,17.8837719 C4.27026316,18.8765789 3.94736842,20.0196491 3.94736842,21.1892982 C3.94736842,24.6718421 6.78061404,27.5050877 10.2631579,27.5050877 C13.7457018,27.5050877 16.5789474,24.6718421 16.5789474,21.1892982 C16.5789474,17.7067544 13.7457895,14.8735965 10.2631579,14.8735965" id="Fill-4" fill="#FFFFFF"></path>
        </g>
    </g>
</svg>