<?xml version="1.0" encoding="UTF-8"?>
<svg width="37px" height="48px" viewBox="0 0 37 48" version="1.1" xmlns="http://www.w3.org/2000/svg" xmlns:xlink="http://www.w3.org/1999/xlink">
    <!-- Generator: Sketch 51.2 (57519) - http://www.bohemiancoding.com/sketch -->
    <title>fingerprint</title>
    <desc>Created with Sketch.</desc>
    <defs></defs>
    <g id="mobileAPPX" stroke="none" stroke-width="1" fill="none" fill-rule="evenodd">
        <g id="homeAppX" transform="translate(-37.000000, -752.000000)" fill="#FFFFFF">
            <g id="fingerprint" transform="translate(37.000000, 752.000000)">
                <path d="M25.403625,30.5520938 C24.7981875,31.8079688 24.0973125,33.019875 23.3050313,34.179375 C23.9915625,36.181125 25.1295937,38.0151562 26.668875,39.5543438 C28.0065,40.8919687 29.5666875,41.9271562 31.2660937,42.6259687 C31.9756875,41.9160938 32.6269687,41.148 33.2130937,40.3303125 C28.9589062,38.9721562 25.7945625,35.1512812 25.403625,30.5520938" id="Fill-1"></path>
                <path d="M18.3170625,5.63596875 C11.3247187,5.63596875 5.63596875,11.3247187 5.63596875,18.3170625 C5.63596875,21.4246875 3.10771875,23.9530312 0,23.9530312 L0,26.7710625 C4.66153125,26.7710625 8.454,22.9785938 8.454,18.3170625 C8.454,12.8785312 12.8785312,8.454 18.3170625,8.454 C23.7555,8.454 28.1800312,12.8785312 28.1800312,18.3170625 L28.1800312,29.589 C28.1800312,33.5931562 30.9780937,36.955875 34.721625,37.8248437 C35.1463125,36.9725625 35.5073437,36.0833438 35.7966562,35.1625313 C33.0846562,34.7566875 30.9980625,32.4121875 30.9980625,29.589 L30.9980625,18.3170625 C30.9980625,11.3247187 25.3093125,5.63596875 18.3170625,5.63596875" id="Fill-2"></path>
                <path d="M24.676125,41.547 C23.73225,40.603125 22.902375,39.552375 22.2096562,38.4239063 L21.2715937,36.89625 L19.9303125,38.247375 C16.6939688,41.4837188 12.8061562,43.8335625 8.56190625,45.1793438 C9.65315625,45.8687812 10.8212813,46.44675 12.0512812,46.8958125 C15.2220937,45.5596875 18.1686562,43.6902187 20.7767812,41.3304375 C21.355875,42.1105313 21.9936563,42.84975 22.6835625,43.5395625 C23.7274688,44.5835625 24.868125,45.4958437 26.0851875,46.2685312 C27.0718125,45.8045625 28.011,45.256125 28.8921562,44.6308125 C27.3553125,43.83825 25.9335938,42.8044687 24.676125,41.547" id="Fill-3"></path>
                <path d="M18.3170625,0 C8.217,0 0,8.217 0,18.3170625 L0,21.135 C1.5538125,21.135 2.81803125,19.870875 2.81803125,18.3170625 C2.81803125,9.77090625 9.77090625,2.81803125 18.3170625,2.81803125 C26.8632188,2.81803125 33.816,9.77090625 33.816,18.3170625 L33.816,29.589 C33.816,31.0749375 34.9724062,32.2951875 36.432375,32.3990625 C36.56475,31.5126562 36.6340313,30.6058125 36.6340313,29.6829375 L36.6340313,18.3170625 C36.6340313,8.217 28.4170313,0 18.3170625,0" id="Fill-4"></path>
                <path d="M9.96534375,28.2823125 C12.625125,25.6224375 14.0900625,22.083375 14.0900625,18.3170625 C14.0900625,15.98625 15.98625,14.0900625 18.3170625,14.0900625 C20.6477813,14.0900625 22.5440625,15.98625 22.5440625,18.3170625 C22.5440625,29.523375 14.3245313,38.84475 3.5979375,40.5726562 C4.2508125,41.4527813 4.98065625,42.2721562 5.77725,43.0215 C10.3479375,41.9635312 14.5412812,39.6511875 17.93775,36.2547187 C22.7252812,31.4670938 25.362,25.0966875 25.362,18.3170625 C25.362,14.4324375 22.2016875,11.2720313 18.3170625,11.2720313 C14.4324375,11.2720313 11.2720312,14.4324375 11.2720312,18.3170625 C11.2720312,24.5324063 6.2154375,29.589 0,29.589 L0,29.6829375 C0,30.6076875 0.06946875,31.5164062 0.20240625,32.4045937 C3.89296875,32.3530313 7.35309375,30.8944687 9.96534375,28.2823125" id="Fill-5"></path>
                <path d="M20.6909063,45.5323125 C20.6052188,45.4467188 20.5202813,45.3602812 20.4359063,45.2730938 C19.1565938,46.2463125 17.8135313,47.1237188 16.4139375,47.9014687 C17.039625,47.9663438 17.6744063,48 18.3170625,48 C19.8808125,48 21.399375,47.8025625 22.8493125,47.4320625 C22.0930312,46.8458438 21.3705,46.2118125 20.6909063,45.5323125" id="Fill-6"></path>
                <path d="M18.3170625,16.908 C17.5388438,16.908 16.908,17.5388438 16.908,18.3170625 C16.908,27.3548438 9.7801875,34.7589375 0.850875,35.2036875 C1.15171875,36.1535625 1.52803125,37.0700625 1.972875,37.9464375 C6.49996875,37.5005625 10.6962187,35.5239375 13.9515938,32.2685625 C17.67525,28.5448125 19.7260312,23.5899375 19.7260312,18.3170625 C19.7260312,17.5388438 19.0951875,16.908 18.3170625,16.908" id="Fill-7"></path>
            </g>
        </g>
    </g>
</svg>