<?xml version="1.0" encoding="UTF-8"?>
<svg width="47px" height="48px" viewBox="0 0 47 48" version="1.1" xmlns="http://www.w3.org/2000/svg" xmlns:xlink="http://www.w3.org/1999/xlink">
    <!-- Generator: Sketch 51.2 (57519) - http://www.bohemiancoding.com/sketch -->
    <title>thumb-up</title>
    <desc>Created with Sketch.</desc>
    <defs></defs>
    <g id="mobileAPPX" stroke="none" stroke-width="1" fill="none" fill-rule="evenodd">
        <g id="homeAppX" transform="translate(-31.000000, -651.000000)" fill="#FFFFFF">
            <g id="thumb-up" transform="translate(31.000000, 651.000000)">
                <path d="M46.9758788,24.3395152 C46.5881212,21.8181818 44.7452121,19.6846061 41.9332121,18.812 C40.4786667,18.3271515 37.8608485,17.7452121 35.8243636,17.2603636 C39.6060606,11.8305455 40.2850909,6.3030303 38.9270303,3.10327273 C38.0544242,1.16387879 36.5027879,0 34.4669091,0 C30.1032727,0 29.4242424,3.97587879 28.4545455,6.69078788 C27.7755152,8.72727273 24.3815758,12.4118788 19.3395152,15.2244848 C15.5578182,17.3574545 11.969697,20.1694545 11.7755152,20.2665455 C11.2906667,20.654303 11,21.2362424 11,21.9152727 L11,42.2789091 C11,42.9573333 11.2906667,43.5392727 11.8726061,43.9270303 C14.8787879,46.0606061 25.6425455,47.9029091 30.9758788,47.9029091 C33.7878788,47.9029091 34.8546667,47.4180606 35.4366061,47.1273939 C37.8608485,45.7699394 41.0606061,38.1088485 43.3877576,31.6122424 C46.1032727,29.5757576 47.3636364,26.9573333 46.9758788,24.3395152 Z M40.3815758,28.5089697 C39.9938182,28.8002424 39.8002424,29.188 39.6060606,29.5757576 C37.4724848,35.3939394 34.4669091,42.2789091 33.3030303,43.4421818 C33.1088485,43.5392727 32.5275152,43.7334545 30.9758788,43.7334545 C25.9332121,43.7334545 18.1756364,42.1818182 15.2665455,41.0179394 L15.2665455,22.9820606 C16.5275152,22.0123636 18.9517576,20.2665455 21.376,18.9090909 C26.8058182,15.8058182 31.3636364,11.5392727 32.5275152,8.04824242 C32.624,7.66048485 32.7210909,7.17563636 32.8181818,6.78787879 C33.6907879,4.16945455 33.8849697,4.16945455 34.4669091,4.16945455 C34.6604848,4.16945455 34.8546667,4.16945455 35.1453333,4.75139394 C36.0179394,6.78787879 35.2424242,12.0241212 30.5881212,17.0667879 C29.4242424,18.3271515 30.1997576,20.2665455 31.654303,20.5578182 C31.7513939,20.5578182 38.0544242,22.0123636 40.6728485,22.7878788 C41.9332121,23.1756364 42.7093333,24.0482424 42.8058182,24.9214545 C43,26.0847273 42.030303,27.345697 40.3815758,28.5089697 Z" id="Fill-1"></path>
                <path d="M3.39393939,18 C1.45454545,18 0,19.4545455 0,21.3939394 L0,42.2424242 C0,44.1818182 1.45454545,45.6363636 3.39393939,45.6363636 C5.33333333,45.6363636 6.8849697,44.1818182 6.8849697,42.2424242 L6.8849697,21.3939394 C6.8849697,19.4545455 5.33333333,18 3.39393939,18 Z" id="Fill-3"></path>
            </g>
        </g>
    </g>
</svg>