<?xml version="1.0" encoding="UTF-8"?>
<svg width="103px" height="30px" viewBox="0 0 103 30" version="1.1" xmlns="http://www.w3.org/2000/svg" xmlns:xlink="http://www.w3.org/1999/xlink">
    <!-- Generator: Sketch 51.2 (57519) - http://www.bohemiancoding.com/sketch -->
    <title>simpleIDfinal-01 Copy 3</title>
    <desc>Created with Sketch.</desc>
    <defs></defs>
    <g id="mobileAPPX" stroke="none" stroke-width="1" fill="none" fill-rule="evenodd">
        <g id="politicaPrivacidadeApp" transform="translate(-15.000000, -20.000000)" fill-rule="nonzero">
            <g id="simpleIDfinal-01-Copy-3" transform="translate(15.000000, 20.000000)">
                <g id="Group">
                    <g fill="#373535" id="Shape">
                        <path d="M11.270942,19.4237027 C11.270942,17.431912 9.54857284,16.0691079 6.11894304,15.3502662 C4.04907836,14.915966 2.61377073,14.3468829 1.81302016,13.6729688 C1.01226959,12.9840788 0.604340053,12.0555749 0.604340053,10.8575053 C0.604340053,9.64445992 1.1180291,8.65605254 2.14540719,7.87730733 C3.17278528,7.09856212 4.5174419,6.70918951 6.16426854,6.70918951 C7.9470717,6.70918951 9.39748783,7.12851386 10.4701914,7.98213841 C11.5580035,8.83576297 12.1019096,9.97392905 12.1019096,11.4116125 L11.2558335,11.4116125 C11.2558335,10.3033982 10.7874699,9.38987014 9.85074287,8.64107667 C8.91401578,7.90725907 7.67511867,7.53286233 6.16426854,7.53286233 C4.71385241,7.53286233 3.56560631,7.84735559 2.70442174,8.47634211 C1.85834566,9.10532862 1.43530763,9.88407383 1.43530763,10.8275536 C1.43530763,11.5613712 1.58639264,12.1454301 1.90367117,12.5647545 C2.2209497,12.9840788 2.73463874,13.3584755 3.4598468,13.7029205 C4.16994637,14.0473655 5.21243296,14.3768347 6.58730658,14.6763521 C7.9621802,14.9908453 9.03488379,15.3652421 9.83563436,15.7845664 C10.6363849,16.2038907 11.210508,16.7130703 11.573112,17.2971292 C11.935716,17.8811881 12.1170181,18.6000299 12.1170181,19.4386785 C12.1170181,20.7415792 11.573112,21.7749142 10.5004084,22.5686353 C9.42770483,23.3623563 8.02261421,23.7517289 6.28513655,23.7517289 C4.42679089,23.7517289 2.91594076,23.3324046 1.78280316,22.4937559 C0.649665557,21.6551072 0.0755425066,20.5768446 0.0755425066,19.2589681 L0.90651008,19.2589681 C0.982052586,20.4121101 1.49574163,21.3106622 2.44757722,21.9546246 C3.3994128,22.598587 4.66852691,22.9130803 6.28513655,22.9130803 C7.76576968,22.9130803 8.97444979,22.5686353 9.89606837,21.8797453 C10.8025784,21.2357829 11.270942,20.3971342 11.270942,19.4237027 Z"></path>
                        <path d="M14.8667653,1.85700781 C14.8667653,1.6173939 14.9423078,1.4227076 15.1085013,1.25797303 C15.2746948,1.09323847 15.4711054,1.00338325 15.7128414,1.00338325 C15.9545774,1.00338325 16.1509879,1.09323847 16.3171814,1.25797303 C16.4833749,1.4227076 16.574026,1.63236977 16.574026,1.85700781 C16.574026,2.09662172 16.4833749,2.29130803 16.3171814,2.45604259 C16.1509879,2.62077715 15.9394689,2.6956565 15.7128414,2.6956565 C15.4711054,2.6956565 15.2746948,2.62077715 15.1085013,2.45604259 C14.9423078,2.29130803 14.8667653,2.09662172 14.8667653,1.85700781 Z M16.1207709,23.4522116 L15.2898033,23.4522116 L15.2898033,7.0087069 L16.1207709,7.0087069 L16.1207709,23.4522116 Z"></path>
                        <path d="M31.8789378,23.4522116 L31.0479702,23.4522116 L31.0479702,12.4000199 C31.0328617,10.7526743 30.6702577,9.52465297 29.9450496,8.71595602 C29.2198416,7.90725907 28.0715955,7.50291059 26.5003113,7.50291059 C24.6721827,7.50291059 23.1915495,8.29663167 22.0281949,9.88407383 C21.3483124,10.8425295 20.8799488,11.8908403 20.6684298,13.0439823 L20.6684298,23.4372357 L19.8223537,23.4372357 L19.8223537,7.0087069 L20.6684298,7.0087069 L20.6684298,10.902433 C21.2274444,9.56958058 22.0281949,8.53624558 23.0706815,7.80242798 C24.1131681,7.06861038 25.2765227,6.70918951 26.5456368,6.70918951 C27.935619,6.70918951 29.0687566,7.0087069 29.9601581,7.62271755 C30.8515597,8.2367282 31.4256828,9.22513558 31.6976358,10.6029156 C32.1811078,9.41982188 32.9818584,8.47634211 34.084779,7.77247624 C35.1876996,7.06861038 36.4265967,6.70918951 37.8014703,6.70918951 C39.5842735,6.70918951 40.9289301,7.21836907 41.8052232,8.22175233 C42.6815163,9.22513558 43.1196628,10.7376984 43.1347713,12.7444649 L43.1347713,23.4821633 L42.3038037,23.4821633 L42.3038037,12.8193442 C42.3038037,11.0222399 41.9411997,9.67441166 41.2008831,8.8207871 C40.4756751,7.95218668 39.327429,7.53286233 37.7561448,7.5478382 C35.7467141,7.57778994 34.145213,8.37151102 32.9667499,9.92900144 C32.2868673,10.8275536 31.9242633,11.696154 31.8638293,12.5497786 L31.8638293,23.4522116 L31.8789378,23.4522116 Z"></path>
                        <path d="M59.2857592,15.3802179 C59.2857592,17.9410916 58.7267447,19.9778098 57.6087156,21.4903727 C56.4906865,23.0029355 54.9798363,23.7517289 53.0459482,23.7517289 C51.7919426,23.7517289 50.6739135,23.4971392 49.6918609,22.9879596 C48.7098083,22.47878 47.9392747,21.7749142 47.3953687,20.8913379 L47.3953687,29.7720285 L46.5644011,29.7720285 L46.5644011,7.0087069 L47.3953687,7.0087069 L47.3953687,9.94397731 C47.9694917,8.89566645 48.7400253,8.10194537 49.7069694,7.5478382 C50.6739135,6.99373103 51.7768341,6.70918951 53.0157312,6.70918951 C54.9647278,6.70918951 56.4906865,7.44300711 57.6087156,8.92561819 C58.7267447,10.4082293 59.2857592,12.4748992 59.2857592,15.140604 L59.2857592,15.3802179 Z M58.4396831,15.0657247 C58.4396831,12.6995373 57.9713196,10.8575053 57.019484,9.52465297 C56.0676484,8.19180059 54.7532088,7.51788646 53.0308397,7.51788646 C51.6408575,7.51788646 50.4623944,7.87730733 49.4803418,8.59614906 C48.5133978,9.3149908 47.8032982,10.3333499 47.3802602,11.6811782 L47.3802602,19.3787751 C47.8032982,20.5169411 48.5133978,21.4005174 49.4954504,22.0145281 C50.4775029,22.6435146 51.655966,22.943032 53.0610567,22.943032 C54.7532088,22.943032 56.0827569,22.2691179 57.019484,20.9362655 C57.9713196,19.5884372 58.4396831,17.6415742 58.4396831,15.0657247 Z"></path>
                        <polygon points="63.2592951 23.4522116 62.4283275 23.4522116 62.4283275 0.0898552167 63.2592951 0.0898552167"></polygon>
                        <path d="M73.0949294,23.7667048 C71.7502728,23.7667048 70.5264842,23.4072839 69.4084551,22.6884422 C68.290426,21.9696005 67.4141329,20.996169 66.7795759,19.7381959 C66.1450188,18.4951988 65.8277403,17.1024429 65.8277403,15.5898801 L65.8277403,14.9009901 C65.8277403,13.3734514 66.1299103,11.9806956 66.7493589,10.7227225 C67.3688074,9.44977362 68.199775,8.46136624 69.2875871,7.75750037 C70.3602907,7.05363451 71.5387538,6.69421364 72.8078679,6.69421364 C74.6662136,6.69421364 76.1770637,7.3531519 77.3555268,8.65605254 C78.5339899,9.95895318 79.1232215,11.6811782 79.1232215,13.8077516 L79.1232215,14.6763521 L66.6738164,14.6763521 L66.6738164,15.5749042 C66.6738164,16.9077566 66.9608779,18.1507538 67.5198924,19.2889198 C68.0940155,20.4270859 68.8645491,21.3256381 69.8617101,21.9696005 C70.8588712,22.6135629 71.9466833,22.943032 73.1100379,22.943032 C74.228067,22.943032 75.1799026,22.7633216 75.9504362,22.3889248 C76.7360782,22.0145281 77.4310693,21.4604209 78.0354094,20.6966516 L78.6246409,21.101 C77.3706353,22.8681526 75.5273981,23.7667048 73.0949294,23.7667048 Z M72.7927594,7.51788646 C71.1761498,7.51788646 69.8012761,8.11692124 68.683247,9.30001493 C67.5652179,10.4980845 66.9004439,12.0106473 66.7040334,13.8526792 L78.2771454,13.8526792 L78.2771454,13.6579929 C78.2771454,12.5497786 78.0354094,11.5014677 77.5670458,10.5430121 C77.0986823,9.58455645 76.4339082,8.83576297 75.6029406,8.31160754 C74.7568646,7.78745211 73.8201375,7.51788646 72.7927594,7.51788646 Z"></path>
                    </g>
                    <g fill="#FFFFFF" id="Shape">
                        <path d="M11.270942,19.4237027 C11.270942,17.431912 9.54857284,16.0691079 6.11894304,15.3502662 C4.04907836,14.915966 2.61377073,14.3468829 1.81302016,13.6729688 C1.01226959,12.9840788 0.604340053,12.0555749 0.604340053,10.8575053 C0.604340053,9.64445992 1.1180291,8.65605254 2.14540719,7.87730733 C3.17278528,7.09856212 4.5174419,6.70918951 6.16426854,6.70918951 C7.9470717,6.70918951 9.39748783,7.12851386 10.4701914,7.98213841 C11.5580035,8.83576297 12.1019096,9.97392905 12.1019096,11.4116125 L11.2558335,11.4116125 C11.2558335,10.3033982 10.7874699,9.38987014 9.85074287,8.64107667 C8.91401578,7.90725907 7.67511867,7.53286233 6.16426854,7.53286233 C4.71385241,7.53286233 3.56560631,7.84735559 2.70442174,8.47634211 C1.85834566,9.10532862 1.43530763,9.88407383 1.43530763,10.8275536 C1.43530763,11.5613712 1.58639264,12.1454301 1.90367117,12.5647545 C2.2209497,12.9840788 2.73463874,13.3584755 3.4598468,13.7029205 C4.16994637,14.0473655 5.21243296,14.3768347 6.58730658,14.6763521 C7.9621802,14.9908453 9.03488379,15.3652421 9.83563436,15.7845664 C10.6363849,16.2038907 11.210508,16.7130703 11.573112,17.2971292 C11.935716,17.8811881 12.1170181,18.6000299 12.1170181,19.4386785 C12.1170181,20.7415792 11.573112,21.7749142 10.5004084,22.5686353 C9.42770483,23.3623563 8.02261421,23.7517289 6.28513655,23.7517289 C4.42679089,23.7517289 2.91594076,23.3324046 1.78280316,22.4937559 C0.649665557,21.6551072 0.0755425066,20.5768446 0.0755425066,19.2589681 L0.90651008,19.2589681 C0.982052586,20.4121101 1.49574163,21.3106622 2.44757722,21.9546246 C3.3994128,22.598587 4.66852691,22.9130803 6.28513655,22.9130803 C7.76576968,22.9130803 8.97444979,22.5686353 9.89606837,21.8797453 C10.8025784,21.2357829 11.270942,20.3971342 11.270942,19.4237027 Z"></path>
                        <path d="M14.8667653,1.85700781 C14.8667653,1.6173939 14.9423078,1.4227076 15.1085013,1.25797303 C15.2746948,1.09323847 15.4711054,1.00338325 15.7128414,1.00338325 C15.9545774,1.00338325 16.1509879,1.09323847 16.3171814,1.25797303 C16.4833749,1.4227076 16.574026,1.63236977 16.574026,1.85700781 C16.574026,2.09662172 16.4833749,2.29130803 16.3171814,2.45604259 C16.1509879,2.62077715 15.9394689,2.6956565 15.7128414,2.6956565 C15.4711054,2.6956565 15.2746948,2.62077715 15.1085013,2.45604259 C14.9423078,2.29130803 14.8667653,2.09662172 14.8667653,1.85700781 Z M16.1207709,23.4522116 L15.2898033,23.4522116 L15.2898033,7.0087069 L16.1207709,7.0087069 L16.1207709,23.4522116 Z"></path>
                        <path d="M31.8789378,23.4522116 L31.0479702,23.4522116 L31.0479702,12.4000199 C31.0328617,10.7526743 30.6702577,9.52465297 29.9450496,8.71595602 C29.2198416,7.90725907 28.0715955,7.50291059 26.5003113,7.50291059 C24.6721827,7.50291059 23.1915495,8.29663167 22.0281949,9.88407383 C21.3483124,10.8425295 20.8799488,11.8908403 20.6684298,13.0439823 L20.6684298,23.4372357 L19.8223537,23.4372357 L19.8223537,7.0087069 L20.6684298,7.0087069 L20.6684298,10.902433 C21.2274444,9.56958058 22.0281949,8.53624558 23.0706815,7.80242798 C24.1131681,7.06861038 25.2765227,6.70918951 26.5456368,6.70918951 C27.935619,6.70918951 29.0687566,7.0087069 29.9601581,7.62271755 C30.8515597,8.2367282 31.4256828,9.22513558 31.6976358,10.6029156 C32.1811078,9.41982188 32.9818584,8.47634211 34.084779,7.77247624 C35.1876996,7.06861038 36.4265967,6.70918951 37.8014703,6.70918951 C39.5842735,6.70918951 40.9289301,7.21836907 41.8052232,8.22175233 C42.6815163,9.22513558 43.1196628,10.7376984 43.1347713,12.7444649 L43.1347713,23.4821633 L42.3038037,23.4821633 L42.3038037,12.8193442 C42.3038037,11.0222399 41.9411997,9.67441166 41.2008831,8.8207871 C40.4756751,7.95218668 39.327429,7.53286233 37.7561448,7.5478382 C35.7467141,7.57778994 34.145213,8.37151102 32.9667499,9.92900144 C32.2868673,10.8275536 31.9242633,11.696154 31.8638293,12.5497786 L31.8638293,23.4522116 L31.8789378,23.4522116 Z"></path>
                        <path d="M59.2857592,15.3802179 C59.2857592,17.9410916 58.7267447,19.9778098 57.6087156,21.4903727 C56.4906865,23.0029355 54.9798363,23.7517289 53.0459482,23.7517289 C51.7919426,23.7517289 50.6739135,23.4971392 49.6918609,22.9879596 C48.7098083,22.47878 47.9392747,21.7749142 47.3953687,20.8913379 L47.3953687,29.7720285 L46.5644011,29.7720285 L46.5644011,7.0087069 L47.3953687,7.0087069 L47.3953687,9.94397731 C47.9694917,8.89566645 48.7400253,8.10194537 49.7069694,7.5478382 C50.6739135,6.99373103 51.7768341,6.70918951 53.0157312,6.70918951 C54.9647278,6.70918951 56.4906865,7.44300711 57.6087156,8.92561819 C58.7267447,10.4082293 59.2857592,12.4748992 59.2857592,15.140604 L59.2857592,15.3802179 Z M58.4396831,15.0657247 C58.4396831,12.6995373 57.9713196,10.8575053 57.019484,9.52465297 C56.0676484,8.19180059 54.7532088,7.51788646 53.0308397,7.51788646 C51.6408575,7.51788646 50.4623944,7.87730733 49.4803418,8.59614906 C48.5133978,9.3149908 47.8032982,10.3333499 47.3802602,11.6811782 L47.3802602,19.3787751 C47.8032982,20.5169411 48.5133978,21.4005174 49.4954504,22.0145281 C50.4775029,22.6435146 51.655966,22.943032 53.0610567,22.943032 C54.7532088,22.943032 56.0827569,22.2691179 57.019484,20.9362655 C57.9713196,19.5884372 58.4396831,17.6415742 58.4396831,15.0657247 Z"></path>
                        <polygon points="63.2592951 23.4522116 62.4283275 23.4522116 62.4283275 0.0898552167 63.2592951 0.0898552167"></polygon>
                        <path d="M73.0949294,23.7667048 C71.7502728,23.7667048 70.5264842,23.4072839 69.4084551,22.6884422 C68.290426,21.9696005 67.4141329,20.996169 66.7795759,19.7381959 C66.1450188,18.4951988 65.8277403,17.1024429 65.8277403,15.5898801 L65.8277403,14.9009901 C65.8277403,13.3734514 66.1299103,11.9806956 66.7493589,10.7227225 C67.3688074,9.44977362 68.199775,8.46136624 69.2875871,7.75750037 C70.3602907,7.05363451 71.5387538,6.69421364 72.8078679,6.69421364 C74.6662136,6.69421364 76.1770637,7.3531519 77.3555268,8.65605254 C78.5339899,9.95895318 79.1232215,11.6811782 79.1232215,13.8077516 L79.1232215,14.6763521 L66.6738164,14.6763521 L66.6738164,15.5749042 C66.6738164,16.9077566 66.9608779,18.1507538 67.5198924,19.2889198 C68.0940155,20.4270859 68.8645491,21.3256381 69.8617101,21.9696005 C70.8588712,22.6135629 71.9466833,22.943032 73.1100379,22.943032 C74.228067,22.943032 75.1799026,22.7633216 75.9504362,22.3889248 C76.7360782,22.0145281 77.4310693,21.4604209 78.0354094,20.6966516 L78.6246409,21.101 C77.3706353,22.8681526 75.5273981,23.7667048 73.0949294,23.7667048 Z M72.7927594,7.51788646 C71.1761498,7.51788646 69.8012761,8.11692124 68.683247,9.30001493 C67.5652179,10.4980845 66.9004439,12.0106473 66.7040334,13.8526792 L78.2771454,13.8526792 L78.2771454,13.6579929 C78.2771454,12.5497786 78.0354094,11.5014677 77.5670458,10.5430121 C77.0986823,9.58455645 76.4339082,8.83576297 75.6029406,8.31160754 C74.7568646,7.78745211 73.8201375,7.51788646 72.7927594,7.51788646 Z"></path>
                    </g>
                </g>
                <path d="M97.8903587,6.69139597 C98.2505286,6.70520488 98.5506702,6.81567615 98.7907834,7.0366187 C99.0308967,7.25756124 99.1509533,7.56135723 99.1359463,7.93419777 C99.1209392,8.30703831 98.9858755,8.59702539 98.7307551,8.81796793 C98.4756348,9.03891048 98.1604861,9.13557284 97.8003162,9.12176393 C97.4401464,9.10795502 97.1400048,8.99748375 96.8998915,8.7627323 C96.6597783,8.54178976 96.5547287,8.23799376 96.5547287,7.86515323 C96.5697358,7.49231269 96.6897924,7.2023256 96.9449128,6.99519197 C97.2300473,6.78805834 97.5301888,6.67758707 97.8903587,6.69139597 Z M86.3649222,8.77654121 L86.3949364,7.46469487 L92.7129165,7.45088596 L92.6829024,8.7627323 L86.3649222,8.77654121 Z" id="Shape" fill="#FFFFFF"></path>
                <path d="M84.5556618,11.5558699 L102.178218,11.5558699 L102.178218,16.3645738 C102.178218,17.7727301 101.855854,19.0460629 101.195776,20.1546115 C100.535697,21.2781405 99.5993072,22.1470029 98.3712545,22.7761791 C97.1432018,23.4053553 95.7462919,23.7199434 94.1805247,23.7199434 L92.5533549,23.7199434 C90.9722371,23.7199434 89.5753272,23.4053553 88.3626251,22.7911595 C87.1499231,22.1619833 86.1981823,21.2931209 85.538104,20.1695919 C84.8780257,19.0460629 84.5403112,17.7427694 84.5403112,16.2746915 L84.5403112,11.5558699 L84.5556618,11.5558699 Z M100.919464,13.0089673 L85.8144158,13.0089673 L85.8144158,16.2746915 C85.8144158,18.0873182 86.4284422,19.5404157 87.6564949,20.6339839 C88.8845475,21.7275521 90.5577693,22.2818264 92.6608095,22.2818264 L94.211226,22.2818264 C96.237513,22.2818264 97.8646828,21.7425325 99.0773848,20.6639446 C100.290087,19.5853568 100.904113,18.1622202 100.919464,16.3945346 L100.919464,13.0089673 Z" id="Shape" fill="#FFFFFF"></path>
            </g>
        </g>
    </g>
</svg>