<?xml version="1.0" encoding="UTF-8"?>
<svg width="168px" height="50px" viewBox="0 0 168 50" version="1.1" xmlns="http://www.w3.org/2000/svg" xmlns:xlink="http://www.w3.org/1999/xlink">
    <!-- Generator: Sketch 51.2 (57519) - http://www.bohemiancoding.com/sketch -->
    <title>simpleIDfinal-01 Copy 2</title>
    <desc>Created with Sketch.</desc>
    <defs>
        <linearGradient x1="-0.218444166%" y1="48.3044815%" x2="656.25734%" y2="48.3044815%" id="linearGradient-1">
            <stop stop-color="#B83180" offset="0%"></stop>
            <stop stop-color="#632678" offset="100%"></stop>
        </linearGradient>
        <linearGradient x1="-867.912389%" y1="62.0883923%" x2="3762.27522%" y2="62.0883923%" id="linearGradient-2">
            <stop stop-color="#B83180" offset="0%"></stop>
            <stop stop-color="#632678" offset="100%"></stop>
        </linearGradient>
        <linearGradient x1="-84.817952%" y1="49.0808036%" x2="254.269021%" y2="49.0808036%" id="linearGradient-3">
            <stop stop-color="#B83180" offset="0%"></stop>
            <stop stop-color="#632678" offset="100%"></stop>
        </linearGradient>
        <linearGradient x1="-365.6462%" y1="35.6951299%" x2="255.744774%" y2="35.6951299%" id="linearGradient-4">
            <stop stop-color="#B83180" offset="0%"></stop>
            <stop stop-color="#632678" offset="100%"></stop>
        </linearGradient>
        <linearGradient x1="-7506.80182%" y1="63.5708333%" x2="2006.12909%" y2="63.5708333%" id="linearGradient-5">
            <stop stop-color="#B83180" offset="0%"></stop>
            <stop stop-color="#632678" offset="100%"></stop>
        </linearGradient>
        <linearGradient x1="-494.743295%" y1="48.3074561%" x2="99.8148864%" y2="48.3074561%" id="linearGradient-6">
            <stop stop-color="#B83180" offset="0%"></stop>
            <stop stop-color="#632678" offset="100%"></stop>
        </linearGradient>
    </defs>
    <g id="mobileAPPX" stroke="none" stroke-width="1" fill="none" fill-rule="evenodd">
        <g id="homeAppX" transform="translate(-104.000000, -883.000000)" fill-rule="nonzero">
            <g id="simpleIDfinal-01-Copy-2" transform="translate(104.000000, 883.000000)">
                <g id="Group">
                    <g fill="#373535" id="Shape">
                        <path d="M18.5388745,31.9919809 C18.5388745,28.7113845 15.7058561,26.466766 10.0646705,25.2827914 C6.66007823,24.5674734 4.2992296,23.6301601 2.98212458,22.5201839 C1.66501956,21.3855416 0.994041527,19.856241 0.994041527,17.88295 C0.994041527,15.8849928 1.83897682,14.2570277 3.52884742,12.9743885 C5.21871801,11.6917494 7.43046041,11.0504298 10.1392236,11.0504298 C13.0716461,11.0504298 15.4573457,11.7410816 17.2217694,13.1470515 C19.0110442,14.5530214 19.9056816,16.4276478 19.9056816,18.7955971 L18.5140234,18.7955971 C18.5140234,16.9703029 17.7436413,15.4656685 16.2028769,14.2323616 C14.6621125,13.0237208 12.6243274,12.4070674 10.1392236,12.4070674 C7.75352391,12.4070674 5.86484501,12.9250563 4.44833583,13.9610341 C3.05667769,14.9970119 2.36084863,16.279651 2.36084863,17.8336177 C2.36084863,19.0422585 2.60935901,20.0042378 3.13123081,20.6948897 C3.65310261,21.3855416 4.49803791,22.002195 5.69088774,22.5695162 C6.85888653,23.1368374 8.57360817,23.6794924 10.8350526,24.1728152 C13.0964971,24.690804 14.8609208,25.3074575 16.1780258,25.9981094 C17.4951309,26.6887612 18.4394703,27.5274099 19.0358952,28.4893893 C19.6323202,29.4513687 19.9305326,30.6353433 19.9305326,32.016647 C19.9305326,34.162601 19.0358952,35.8645645 17.2714715,37.1718698 C15.5070478,38.4791751 13.1959013,39.1204947 10.3380319,39.1204947 C7.28135418,39.1204947 4.79625037,38.4298429 2.9324225,37.0485391 C1.06859464,35.6672354 0.124255191,33.8912735 0.124255191,31.7206534 L1.49106229,31.7206534 C1.61531748,33.619946 2.46025278,35.0999142 4.02586818,36.1605582 C5.59148359,37.2212021 7.67897079,37.739191 10.3380319,37.739191 C12.7734336,37.739191 14.7615167,37.1718698 16.27743,36.0372275 C17.7684923,34.9765836 18.5388745,33.5952798 18.5388745,31.9919809 Z"></path>
                        <path d="M24.4534216,3.0586011 C24.4534216,2.66394289 24.5776767,2.3432831 24.8510382,2.07195558 C25.1243996,1.80062807 25.4474631,1.65263124 25.8450797,1.65263124 C26.2426963,1.65263124 26.5657598,1.80062807 26.8391212,2.07195558 C27.1124826,2.3432831 27.2615889,2.68860903 27.2615889,3.0586011 C27.2615889,3.45325931 27.1124826,3.7739191 26.8391212,4.04524662 C26.5657598,4.31657413 26.2178453,4.43990482 25.8450797,4.43990482 C25.4474631,4.43990482 25.1243996,4.31657413 24.8510382,4.04524662 C24.5776767,3.7739191 24.4534216,3.45325931 24.4534216,3.0586011 Z M26.5160577,38.627172 L25.1492506,38.627172 L25.1492506,11.5437525 L26.5160577,11.5437525 L26.5160577,38.627172 Z"></path>
                        <path d="M52.4356905,38.627172 L51.0688834,38.627172 L51.0688834,20.4235622 C51.0440324,17.710287 50.4476075,15.6876637 49.2547576,14.3556923 C48.0619078,13.0237208 46.1732289,12.3577351 43.5887209,12.3577351 C40.5817453,12.3577351 38.1463436,13.6650404 36.2328136,16.279651 C35.1145169,17.8582838 34.3441347,19.5849135 33.9962202,21.4842061 L33.9962202,38.6025058 L32.6045621,38.6025058 L32.6045621,11.5437525 L33.9962202,11.5437525 L33.9962202,17.9569484 C34.9157086,15.7616621 36.2328136,14.0596986 37.9475353,12.8510579 C39.6622569,11.6424171 41.5757869,11.0504298 43.6632741,11.0504298 C45.9495696,11.0504298 47.8133974,11.5437525 49.2796087,12.5550642 C50.7458199,13.5663759 51.6901594,15.194341 52.1374781,17.4636256 C52.9327113,15.5150007 54.2498163,13.9610341 56.0639421,12.8017256 C57.8780679,11.6424171 59.915853,11.0504298 62.1772975,11.0504298 C65.10972,11.0504298 67.3214624,11.8890785 68.7628226,13.5417097 C70.2041828,15.194341 70.9248629,17.6856209 70.949714,20.9908834 L70.949714,38.6765042 L69.5829069,38.6765042 L69.5829069,21.1142141 C69.5829069,18.1542775 68.9864819,15.9343251 67.7687811,14.5283552 C66.5759312,13.0977192 64.6872523,12.4070674 62.1027444,12.4317335 C58.7975563,12.4810658 56.1633463,13.7883711 54.2249653,16.3536494 C53.1066686,17.8336177 52.5102436,19.2642537 52.4108395,20.6702236 L52.4108395,38.627172 L52.4356905,38.627172 Z"></path>
                        <path d="M97.5154738,25.3321236 C97.5154738,29.5500332 96.5959854,32.904628 94.7570085,35.3959079 C92.9180317,37.8871878 90.4329279,39.1204947 87.251995,39.1204947 C85.1893588,39.1204947 83.350382,38.7011704 81.7350645,37.8625217 C80.119747,37.023873 78.8523441,35.8645645 77.9577067,34.4092624 L77.9577067,49.0362822 L76.5908996,49.0362822 L76.5908996,11.5437525 L77.9577067,11.5437525 L77.9577067,16.3783156 C78.9020462,14.6516859 80.1694491,13.3443806 81.7599156,12.4317335 C83.350382,11.5190864 85.1645078,11.0504298 87.2022929,11.0504298 C90.4080768,11.0504298 92.9180317,12.2590705 94.7570085,14.7010182 C96.5959854,17.1429658 97.5154738,20.5468929 97.5154738,24.9374654 L97.5154738,25.3321236 Z M96.1238156,24.8141347 C96.1238156,20.9168849 95.3534334,17.88295 93.787818,15.6876637 C92.2222026,13.4923774 90.0601623,12.3824012 87.227144,12.3824012 C84.9408485,12.3824012 83.0024675,12.9743885 81.38715,14.1583632 C79.7966836,15.3423378 78.6286848,17.0196352 77.9328557,19.2395876 L77.9328557,31.9179825 C78.6286848,33.7926089 79.7966836,35.2479111 81.412001,36.2592227 C83.0273185,37.2952005 84.9656995,37.7885233 87.276846,37.7885233 C90.0601623,37.7885233 92.2470537,36.6785471 93.787818,34.4832608 C95.3534334,32.2633084 96.1238156,29.0567105 96.1238156,24.8141347 Z"></path>
                        <polygon points="104.051297 38.627172 102.68449 38.627172 102.68449 0.147996827 104.051297 0.147996827"></polygon>
                        <path d="M120.229323,39.1451609 C118.01758,39.1451609 116.004646,38.5531736 114.165669,37.3691989 C112.326693,36.1852243 110.885332,34.5819254 109.841589,32.5099698 C108.797845,30.4626803 108.275973,28.1687295 108.275973,25.6774496 L108.275973,24.5428072 C108.275973,22.0268612 108.772994,19.7329103 109.791887,17.6609547 C110.810779,15.564333 112.177586,13.9363679 113.966861,12.7770594 C115.731285,11.617751 117.669666,11.0257636 119.757153,11.0257636 C122.813831,11.0257636 125.298934,12.1110737 127.237315,14.2570277 C129.175696,16.4029817 130.144887,19.2395876 130.144887,22.7421792 L130.144887,24.1728152 L109.667631,24.1728152 L109.667631,25.6527834 C109.667631,27.8480697 110.139801,29.8953591 111.05929,31.7699856 C112.003629,33.6446121 113.271032,35.1245804 114.9112,36.1852243 C116.551369,37.2458682 118.340644,37.7885233 120.254174,37.7885233 C122.093151,37.7885233 123.658766,37.4925296 124.926169,36.8758762 C126.218423,36.2592227 127.361571,35.3465756 128.355612,34.0886026 L129.324803,34.7545883 C127.262166,37.6651926 124.23034,39.1451609 120.229323,39.1451609 Z M119.732302,12.3824012 C117.073241,12.3824012 114.811796,13.3690467 112.97282,15.3176716 C111.133843,17.2909627 110.040397,19.7822426 109.717334,22.8161776 L128.753229,22.8161776 L128.753229,22.4955178 C128.753229,20.6702236 128.355612,18.9435939 127.58523,17.3649611 C126.814848,15.7863283 125.721402,14.5530214 124.354595,13.6897065 C122.962937,12.8263917 121.422172,12.3824012 119.732302,12.3824012 Z"></path>
                    </g>
                    <g id="Shape">
                        <path d="M18.5388745,31.9919809 C18.5388745,28.7113845 15.7058561,26.466766 10.0646705,25.2827914 C6.66007823,24.5674734 4.2992296,23.6301601 2.98212458,22.5201839 C1.66501956,21.3855416 0.994041527,19.856241 0.994041527,17.88295 C0.994041527,15.8849928 1.83897682,14.2570277 3.52884742,12.9743885 C5.21871801,11.6917494 7.43046041,11.0504298 10.1392236,11.0504298 C13.0716461,11.0504298 15.4573457,11.7410816 17.2217694,13.1470515 C19.0110442,14.5530214 19.9056816,16.4276478 19.9056816,18.7955971 L18.5140234,18.7955971 C18.5140234,16.9703029 17.7436413,15.4656685 16.2028769,14.2323616 C14.6621125,13.0237208 12.6243274,12.4070674 10.1392236,12.4070674 C7.75352391,12.4070674 5.86484501,12.9250563 4.44833583,13.9610341 C3.05667769,14.9970119 2.36084863,16.279651 2.36084863,17.8336177 C2.36084863,19.0422585 2.60935901,20.0042378 3.13123081,20.6948897 C3.65310261,21.3855416 4.49803791,22.002195 5.69088774,22.5695162 C6.85888653,23.1368374 8.57360817,23.6794924 10.8350526,24.1728152 C13.0964971,24.690804 14.8609208,25.3074575 16.1780258,25.9981094 C17.4951309,26.6887612 18.4394703,27.5274099 19.0358952,28.4893893 C19.6323202,29.4513687 19.9305326,30.6353433 19.9305326,32.016647 C19.9305326,34.162601 19.0358952,35.8645645 17.2714715,37.1718698 C15.5070478,38.4791751 13.1959013,39.1204947 10.3380319,39.1204947 C7.28135418,39.1204947 4.79625037,38.4298429 2.9324225,37.0485391 C1.06859464,35.6672354 0.124255191,33.8912735 0.124255191,31.7206534 L1.49106229,31.7206534 C1.61531748,33.619946 2.46025278,35.0999142 4.02586818,36.1605582 C5.59148359,37.2212021 7.67897079,37.739191 10.3380319,37.739191 C12.7734336,37.739191 14.7615167,37.1718698 16.27743,36.0372275 C17.7684923,34.9765836 18.5388745,33.5952798 18.5388745,31.9919809 Z" fill="url(#linearGradient-1)"></path>
                        <path d="M24.4534216,3.0586011 C24.4534216,2.66394289 24.5776767,2.3432831 24.8510382,2.07195558 C25.1243996,1.80062807 25.4474631,1.65263124 25.8450797,1.65263124 C26.2426963,1.65263124 26.5657598,1.80062807 26.8391212,2.07195558 C27.1124826,2.3432831 27.2615889,2.68860903 27.2615889,3.0586011 C27.2615889,3.45325931 27.1124826,3.7739191 26.8391212,4.04524662 C26.5657598,4.31657413 26.2178453,4.43990482 25.8450797,4.43990482 C25.4474631,4.43990482 25.1243996,4.31657413 24.8510382,4.04524662 C24.5776767,3.7739191 24.4534216,3.45325931 24.4534216,3.0586011 Z M26.5160577,38.627172 L25.1492506,38.627172 L25.1492506,11.5437525 L26.5160577,11.5437525 L26.5160577,38.627172 Z" fill="url(#linearGradient-2)"></path>
                        <path d="M52.4356905,38.627172 L51.0688834,38.627172 L51.0688834,20.4235622 C51.0440324,17.710287 50.4476075,15.6876637 49.2547576,14.3556923 C48.0619078,13.0237208 46.1732289,12.3577351 43.5887209,12.3577351 C40.5817453,12.3577351 38.1463436,13.6650404 36.2328136,16.279651 C35.1145169,17.8582838 34.3441347,19.5849135 33.9962202,21.4842061 L33.9962202,38.6025058 L32.6045621,38.6025058 L32.6045621,11.5437525 L33.9962202,11.5437525 L33.9962202,17.9569484 C34.9157086,15.7616621 36.2328136,14.0596986 37.9475353,12.8510579 C39.6622569,11.6424171 41.5757869,11.0504298 43.6632741,11.0504298 C45.9495696,11.0504298 47.8133974,11.5437525 49.2796087,12.5550642 C50.7458199,13.5663759 51.6901594,15.194341 52.1374781,17.4636256 C52.9327113,15.5150007 54.2498163,13.9610341 56.0639421,12.8017256 C57.8780679,11.6424171 59.915853,11.0504298 62.1772975,11.0504298 C65.10972,11.0504298 67.3214624,11.8890785 68.7628226,13.5417097 C70.2041828,15.194341 70.9248629,17.6856209 70.949714,20.9908834 L70.949714,38.6765042 L69.5829069,38.6765042 L69.5829069,21.1142141 C69.5829069,18.1542775 68.9864819,15.9343251 67.7687811,14.5283552 C66.5759312,13.0977192 64.6872523,12.4070674 62.1027444,12.4317335 C58.7975563,12.4810658 56.1633463,13.7883711 54.2249653,16.3536494 C53.1066686,17.8336177 52.5102436,19.2642537 52.4108395,20.6702236 L52.4108395,38.627172 L52.4356905,38.627172 Z" fill="url(#linearGradient-3)"></path>
                        <path d="M97.5154738,25.3321236 C97.5154738,29.5500332 96.5959854,32.904628 94.7570085,35.3959079 C92.9180317,37.8871878 90.4329279,39.1204947 87.251995,39.1204947 C85.1893588,39.1204947 83.350382,38.7011704 81.7350645,37.8625217 C80.119747,37.023873 78.8523441,35.8645645 77.9577067,34.4092624 L77.9577067,49.0362822 L76.5908996,49.0362822 L76.5908996,11.5437525 L77.9577067,11.5437525 L77.9577067,16.3783156 C78.9020462,14.6516859 80.1694491,13.3443806 81.7599156,12.4317335 C83.350382,11.5190864 85.1645078,11.0504298 87.2022929,11.0504298 C90.4080768,11.0504298 92.9180317,12.2590705 94.7570085,14.7010182 C96.5959854,17.1429658 97.5154738,20.5468929 97.5154738,24.9374654 L97.5154738,25.3321236 Z M96.1238156,24.8141347 C96.1238156,20.9168849 95.3534334,17.88295 93.787818,15.6876637 C92.2222026,13.4923774 90.0601623,12.3824012 87.227144,12.3824012 C84.9408485,12.3824012 83.0024675,12.9743885 81.38715,14.1583632 C79.7966836,15.3423378 78.6286848,17.0196352 77.9328557,19.2395876 L77.9328557,31.9179825 C78.6286848,33.7926089 79.7966836,35.2479111 81.412001,36.2592227 C83.0273185,37.2952005 84.9656995,37.7885233 87.276846,37.7885233 C90.0601623,37.7885233 92.2470537,36.6785471 93.787818,34.4832608 C95.3534334,32.2633084 96.1238156,29.0567105 96.1238156,24.8141347 Z" fill="url(#linearGradient-4)"></path>
                        <polygon fill="url(#linearGradient-5)" points="104.051297 38.627172 102.68449 38.627172 102.68449 0.147996827 104.051297 0.147996827"></polygon>
                        <path d="M120.229323,39.1451609 C118.01758,39.1451609 116.004646,38.5531736 114.165669,37.3691989 C112.326693,36.1852243 110.885332,34.5819254 109.841589,32.5099698 C108.797845,30.4626803 108.275973,28.1687295 108.275973,25.6774496 L108.275973,24.5428072 C108.275973,22.0268612 108.772994,19.7329103 109.791887,17.6609547 C110.810779,15.564333 112.177586,13.9363679 113.966861,12.7770594 C115.731285,11.617751 117.669666,11.0257636 119.757153,11.0257636 C122.813831,11.0257636 125.298934,12.1110737 127.237315,14.2570277 C129.175696,16.4029817 130.144887,19.2395876 130.144887,22.7421792 L130.144887,24.1728152 L109.667631,24.1728152 L109.667631,25.6527834 C109.667631,27.8480697 110.139801,29.8953591 111.05929,31.7699856 C112.003629,33.6446121 113.271032,35.1245804 114.9112,36.1852243 C116.551369,37.2458682 118.340644,37.7885233 120.254174,37.7885233 C122.093151,37.7885233 123.658766,37.4925296 124.926169,36.8758762 C126.218423,36.2592227 127.361571,35.3465756 128.355612,34.0886026 L129.324803,34.7545883 C127.262166,37.6651926 124.23034,39.1451609 120.229323,39.1451609 Z M119.732302,12.3824012 C117.073241,12.3824012 114.811796,13.3690467 112.97282,15.3176716 C111.133843,17.2909627 110.040397,19.7822426 109.717334,22.8161776 L128.753229,22.8161776 L128.753229,22.4955178 C128.753229,20.6702236 128.355612,18.9435939 127.58523,17.3649611 C126.814848,15.7863283 125.721402,14.5530214 124.354595,13.6897065 C122.962937,12.8263917 121.422172,12.3824012 119.732302,12.3824012 Z" fill="url(#linearGradient-6)"></path>
                    </g>
                </g>
                <path d="M161.032904,10.8724658 C161.618123,10.8949031 162.105806,11.0744015 162.495952,11.4333984 C162.886098,11.7923953 163.081171,12.286016 163.056787,12.8918232 C163.032403,13.4976304 162.812946,13.9688138 162.398415,14.3278107 C161.983885,14.6868075 161.471818,14.8438687 160.886599,14.8214314 C160.301379,14.7989941 159.813696,14.6194956 159.42355,14.2380614 C159.033404,13.8790646 158.862715,13.3854439 158.862715,12.7796367 C158.887099,12.1738294 159.082172,11.702646 159.496703,11.3660865 C159.960001,11.0295269 160.447684,10.8500285 161.032904,10.8724658 Z M142.305882,14.2604987 L142.354651,12.1289548 L152.620374,12.1065175 L152.571606,14.2380614 L142.305882,14.2604987 Z" id="Shape" fill="#632678"></path>
                <path d="M139.366119,18.7764706 L168,18.7764706 L168,26.589858 C168,28.8778905 167.476209,30.946856 166.403686,32.748073 C165.331163,34.5736308 163.809676,35.9853955 161.814284,37.0077079 C159.818891,38.0300203 157.549132,38.5411765 155.005007,38.5411765 L152.361112,38.5411765 C149.792044,38.5411765 147.522285,38.0300203 145.551835,37.0320487 C143.581385,36.0097363 142.034956,34.5979716 140.962433,32.7724138 C139.889909,30.946856 139.341176,28.8292089 139.341176,26.4438134 L139.341176,18.7764706 L139.366119,18.7764706 Z M165.954723,21.1375254 L141.411396,21.1375254 L141.411396,26.4438134 C141.411396,29.3890467 142.409092,31.7501014 144.404485,33.5269777 C146.399877,35.303854 149.118599,36.2044625 152.535709,36.2044625 L155.054892,36.2044625 C158.347289,36.2044625 160.991184,35.3281947 162.961634,33.5756592 C164.932084,31.8231237 165.92978,29.5107505 165.954723,26.6385396 L165.954723,21.1375254 Z" id="Shape" fill="#632678"></path>
            </g>
        </g>
    </g>
</svg>