<?xml version="1.0" encoding="UTF-8"?>
<svg width="48px" height="48px" viewBox="0 0 48 48" version="1.1" xmlns="http://www.w3.org/2000/svg" xmlns:xlink="http://www.w3.org/1999/xlink">
    <!-- Generator: Sketch 51.2 (57519) - http://www.bohemiancoding.com/sketch -->
    <title>iconeAddPassport</title>
    <desc>Created with Sketch.</desc>
    <defs></defs>
    <g id="iconeAddPassport" stroke="none" stroke-width="1" fill="none" fill-rule="evenodd">
        <g id="passport" transform="translate(3.000000, 2.000000)" fill="#FFFFFF">
            <path d="M16.87951,18.2388508 C16.5699822,16.6879376 16.0865612,15.434392 15.5929443,14.4672695 C17.5704989,15.0574209 19.1939065,16.428735 20.115755,18.2388508 L16.87951,18.2388508 Z M20.9532294,21.6063341 C20.9532294,22.2560713 20.8439733,22.8756882 20.6875724,23.4771581 L17.1038218,23.4771581 C17.1670557,22.8841069 17.2115813,22.2684187 17.2115813,21.6063341 C17.2115813,20.9446236 17.1684588,20.3281871 17.1059733,19.73551 L20.6875724,19.73551 C20.8439733,20.33698 20.9532294,20.9566904 20.9532294,21.6063341 Z M15.5957506,28.7447439 C16.0791715,27.791559 16.5629666,26.5282851 16.87502,24.9738174 L20.115755,24.9738174 C19.1941871,26.7830913 17.5718085,28.1539376 15.5957506,28.7447439 Z M13.6873229,29.0677416 C13.6135189,29.0699866 13.5444855,29.0896303 13.4699332,29.0896303 C13.3953808,29.0896303 13.3263474,29.0698931 13.2521693,29.0677416 C12.715804,28.2427082 12.0171448,26.8766325 11.5940579,24.9738174 L15.345902,24.9738174 C14.9234699,26.8754165 14.225559,28.2408374 13.6873229,29.0677416 Z M6.82411136,24.9738174 L10.0652205,24.9738174 C10.3780223,26.5281915 10.862098,27.7924944 11.3448641,28.7447439 C9.36833853,28.1542183 7.74567929,26.7832784 6.82411136,24.9738174 Z M5.98663697,21.6063341 C5.98663697,20.9565969 6.0958931,20.33698 6.25229399,19.73551 L9.83426726,19.73551 C9.77178174,20.3281871 9.72828508,20.9446236 9.72828508,21.6063341 C9.72828508,22.2684187 9.77290423,22.8841069 9.83641871,23.4771581 L6.25229399,23.4771581 C6.0958931,22.8756882 5.98663697,22.2560713 5.98663697,21.6063341 Z M11.3470156,14.4672695 C10.8551759,15.4323341 10.3713808,16.6872829 10.0614788,18.2388508 L6.82411136,18.2388508 C7.74605345,16.428735 9.36946102,15.0577951 11.3470156,14.4672695 Z M15.5976214,19.73551 C15.6656258,20.3243519 15.714922,20.9380757 15.714922,21.6063341 C15.714922,22.2744053 15.6648775,22.8881292 15.5961247,23.4771581 L11.3441158,23.4771581 C11.2749889,22.8881292 11.2249443,22.2743118 11.2249443,21.6063341 C11.2249443,20.9379822 11.2742405,20.3243519 11.3426192,19.73551 L15.5976214,19.73551 Z M13.2521693,14.1449265 C13.3259733,14.1427751 13.3953808,14.1230379 13.4699332,14.1230379 C13.5452339,14.1230379 13.614922,14.1431492 13.6898486,14.1453007 C14.2514699,15.0070022 14.9344143,16.3698976 15.3480535,18.2388508 L11.5921871,18.2388508 C12.0076036,16.3634432 12.6930735,15.0011091 13.2521693,14.1449265 Z M13.4699332,12.6263786 C8.51047216,12.6263786 4.48997773,16.6468731 4.48997773,21.6063341 C4.48997773,26.5657951 8.51047216,30.5862895 13.4699332,30.5862895 C18.4293942,30.5862895 22.4498886,26.5657951 22.4498886,21.6063341 C22.4498886,16.6468731 18.4293942,12.6263786 13.4699332,12.6263786 Z" id="Fill-1"></path>
            <polygon id="Fill-2" points="5.98663697 36.5729265 20.9532294 36.5729265 20.9532294 35.0762673 5.98663697 35.0762673"></polygon>
            <polyline id="Fill-3" points="30.5977016 27.1865345 31.3726904 24.2952695 32.8183697 24.6827171 32.0433808 27.5739822 30.5977016 27.1865345"></polyline>
            <g id="Group-7">
                <polyline id="Fill-4" points="27.1125434 40.1938129 29.8239287 30.0744321 31.2695145 30.4617862 28.5581292 40.581167 27.1125434 40.1938129"></polyline>
                <path d="M40.3583519,8.10740312 L31.448833,41.357559 C31.2734432,42.0112249 30.6797372,42.467706 30.0048374,42.467706 C29.8747216,42.467706 29.743951,42.4503073 29.615706,42.4159777 L24.3967617,41.0174432 C25.83449,40.7990245 26.9398664,39.5685835 26.9398664,38.0695857 L26.9398664,26.204539 L27.7064365,26.4099555 L28.4814254,23.5185033 L27.035559,23.1312428 L26.9398664,23.4889443 L26.9398664,11.5952739 C27.4064499,11.7203385 27.9450601,11.8646726 28.4672071,12.0046102 L30.2371938,17.7911626 L31.4762405,18.1232339 L31.3589399,12.7793185 C32.1727483,12.9974566 33.0036748,13.2199911 33.5480846,13.3659154 L34.5101559,15.0624722 L35.3363118,15.2838842 L35.1941292,12.9216882 L36.4982806,10.9469399 L35.6721247,10.7255278 L33.9909087,11.7137906 C33.4461247,11.5679599 32.6155724,11.3453318 31.8014833,11.1271938 L34.575167,6.55798664 L33.3360267,6.22600891 L28.9100312,10.3524855 C28.0396303,10.1192873 27.09,9.86466815 26.5755234,9.7269755 C26.0713363,8.78464143 25.0894343,8.13640089 23.9465479,8.13640089 L18.6578218,8.13640089 L20.1186548,2.68444543 C20.2940445,2.03087305 20.8878441,1.57439198 21.5627439,1.57429844 C21.6927661,1.57429844 21.8236303,1.5916971 21.9518753,1.62612027 L39.2997461,6.27446325 C39.6859777,6.37791982 40.0086013,6.62561693 40.2084989,6.97181292 C40.4083964,7.31810245 40.4616214,7.72135857 40.3583519,8.10740312 Z M1.49665924,39.566245 L1.49665924,9.63306013 L23.9465479,9.63306013 C24.7719555,9.63306013 25.4432071,10.3044989 25.4432071,11.1297194 L25.4432071,38.0695857 C25.4432071,38.8948062 24.7719555,39.566245 23.9465479,39.566245 L1.49665924,39.566245 Z M39.6871002,4.82878396 L22.3392294,0.180347439 C22.0797461,0.110846325 21.8192339,0.0776391982 21.5627439,0.0776391982 C20.2411002,0.0777327394 19.031706,0.959732739 18.6732561,2.29699777 L17.1085924,8.13640089 L1.49665924,8.13640089 C0.670129176,8.13640089 0,8.80643653 0,9.63306013 L0,39.566245 C0,40.3928686 0.670129176,41.0629042 1.49665924,41.0629042 L18.783167,41.0629042 L29.2283519,43.861657 C29.4877416,43.9311581 29.7482539,43.9643653 30.0048374,43.9643653 C31.3263875,43.9643653 32.5358753,43.0823653 32.8943252,41.7450067 L41.8037506,8.49475724 C42.2317016,6.89800891 41.2838486,5.25664143 39.6871002,4.82878396 Z" id="Fill-6"></path>
            </g>
            <polyline id="Fill-8" points="30.600882 21.7852784 30.9837461 20.3384766 32.4059465 20.7147929 32.0230824 22.1615947 30.600882 21.7852784"></polyline>
            <polyline id="Fill-9" points="33.4415412 22.5398753 33.8244053 21.0930735 35.2466058 21.4693898 34.8637416 22.9161915 33.4415412 22.5398753"></polyline>
            <polyline id="Fill-10" points="27.7604098 21.0329265 28.1432739 19.5861247 29.5654744 19.962441 29.1826102 21.4093363 27.7604098 21.0329265"></polyline>
        </g>
    </g>
</svg>