<?xml version="1.0" encoding="UTF-8"?>
<svg width="24px" height="24px" viewBox="0 0 24 24" version="1.1" xmlns="http://www.w3.org/2000/svg" xmlns:xlink="http://www.w3.org/1999/xlink">
    <!-- Generator: Sketch 51.2 (57519) - http://www.bohemiancoding.com/sketch -->
    <title>coin</title>
    <desc>Created with Sketch.</desc>
    <defs>
        <polygon id="path-1" points="0.00842105263 0.111859649 23.8881404 0.111859649 23.8881404 24 0.00842105263 24"></polygon>
    </defs>
    <g id="mobileAPPX" stroke="none" stroke-width="1" fill="none" fill-rule="evenodd">
        <g id="dashboardConsultas" transform="translate(-41.000000, -63.000000)">
            <g id="coin" transform="translate(41.000000, 63.000000)">
                <g id="Group-3">
                    <mask id="mask-2" fill="white">
                        <use xlink:href="#path-1"></use>
                    </mask>
                    <g id="Clip-2"></g>
                    <path d="M11.9441404,0.111859649 C5.35803509,0.111859649 0,5.46989474 0,12.0558596 C0,18.6419649 5.35803509,24 11.9441404,24 C18.5301053,24 23.8881404,18.6419649 23.8881404,12.0558596 C23.8881404,5.46989474 18.5301053,0.111859649 11.9441404,0.111859649 Z M11.9441404,22.4282105 C6.22484211,22.4282105 1.57178947,17.7751579 1.57178947,12.0558596 C1.57178947,6.3365614 6.22484211,1.68364912 11.9441404,1.68364912 C17.6634386,1.68364912 22.3163509,6.3365614 22.3163509,12.0558596 C22.3163509,17.7751579 17.6634386,22.4282105 11.9441404,22.4282105 Z" id="Fill-1" fill="#FFFFFF" mask="url(#mask-2)"></path>
                </g>
                <path d="M12.7302456,11.3508772 L12.7302456,6.88814035 C13.1748772,7.05319298 13.5630877,7.35635088 13.8328421,7.76645614 C14.0712982,8.12884211 14.5585965,8.22919298 14.9209825,7.99073684 C15.2839298,7.75157895 15.3842807,7.2642807 15.1452632,6.90189474 C14.5806316,6.04435088 13.7105965,5.46217544 12.7302456,5.25712281 L12.7302456,4.00870175 C12.7302456,3.57459649 12.3782456,3.22259649 11.9441404,3.22259649 C11.5098947,3.22259649 11.1578947,3.57459649 11.1578947,4.00870175 L11.1578947,5.25487719 C9.41824561,5.61726316 8.10750877,7.16224561 8.10750877,9.0082807 C8.10750877,10.853614 9.41880702,12.3985965 11.1578947,12.7615439 L11.1578947,17.2237193 C10.7132632,17.0586667 10.3250526,16.7555088 10.0554386,16.3459649 C9.81684211,15.9830175 9.32954386,15.8826667 8.96715789,16.1216842 C8.60421053,16.3601404 8.50385965,16.8475789 8.74287719,17.2099649 C9.30750877,18.0673684 10.1776842,18.6496842 11.1578947,18.8547368 L11.1578947,20.1030175 C11.1578947,20.5372632 11.5098947,20.8892632 11.9441404,20.8892632 C12.3782456,20.8892632 12.7302456,20.5372632 12.7302456,20.1030175 L12.7302456,18.8568421 C14.4698947,18.4944561 15.7807719,16.949614 15.7807719,15.1041404 C15.7807719,13.2582456 14.4698947,11.7132632 12.7302456,11.3508772 Z M9.67985965,9.0082807 C9.67985965,8.03621053 10.2965614,7.2082807 11.1578947,6.88870175 L11.1578947,11.1271579 C10.2965614,10.8075789 9.67985965,9.97964912 9.67985965,9.0082807 Z M12.7302456,17.2231579 L12.7302456,12.9847018 C13.5915789,13.3042807 14.2082807,14.1320702 14.2082807,15.1041404 C14.2082807,16.0756491 13.5915789,16.9034386 12.7302456,17.2231579 Z" id="Fill-4" fill="#FFFFFF"></path>
            </g>
        </g>
    </g>
</svg>