<?xml version="1.0" encoding="UTF-8"?>
<svg width="344px" height="101px" viewBox="0 0 344 101" version="1.1" xmlns="http://www.w3.org/2000/svg" xmlns:xlink="http://www.w3.org/1999/xlink">
    <!-- Generator: Sketch 51.2 (57519) - http://www.bohemiancoding.com/sketch -->
    <title>simpleIDfinal-01 Copy</title>
    <desc>Created with Sketch.</desc>
    <defs>
        <linearGradient x1="-0.218444166%" y1="48.3044815%" x2="656.25734%" y2="48.3044815%" id="linearGradient-1">
            <stop stop-color="#B83180" offset="0%"></stop>
            <stop stop-color="#632678" offset="100%"></stop>
        </linearGradient>
        <linearGradient x1="-867.912389%" y1="62.0883923%" x2="3762.27522%" y2="62.0883923%" id="linearGradient-2">
            <stop stop-color="#B83180" offset="0%"></stop>
            <stop stop-color="#632678" offset="100%"></stop>
        </linearGradient>
        <linearGradient x1="-84.817952%" y1="49.0808036%" x2="254.269021%" y2="49.0808036%" id="linearGradient-3">
            <stop stop-color="#B83180" offset="0%"></stop>
            <stop stop-color="#632678" offset="100%"></stop>
        </linearGradient>
        <linearGradient x1="-365.6462%" y1="35.6951299%" x2="255.744774%" y2="35.6951299%" id="linearGradient-4">
            <stop stop-color="#B83180" offset="0%"></stop>
            <stop stop-color="#632678" offset="100%"></stop>
        </linearGradient>
        <linearGradient x1="-7506.80182%" y1="63.5708333%" x2="2006.12909%" y2="63.5708333%" id="linearGradient-5">
            <stop stop-color="#B83180" offset="0%"></stop>
            <stop stop-color="#632678" offset="100%"></stop>
        </linearGradient>
        <linearGradient x1="-494.743295%" y1="48.3074561%" x2="99.8148864%" y2="48.3074561%" id="linearGradient-6">
            <stop stop-color="#B83180" offset="0%"></stop>
            <stop stop-color="#632678" offset="100%"></stop>
        </linearGradient>
    </defs>
    <g id="mobileAPPX" stroke="none" stroke-width="1" fill="none" fill-rule="evenodd">
        <g id="homeAppX" transform="translate(-15.000000, -119.000000)" fill-rule="nonzero">
            <g id="simpleIDfinal-01-Copy" transform="translate(15.000000, 119.000000)">
                <g id="Group">
                    <g fill="#373535" id="Shape">
                        <path d="M37.9455047,65.3931323 C37.9455047,58.6874372 32.1468619,54.09933 20.6004416,51.6792295 C13.6318971,50.2170854 8.79969479,48.3011725 6.10383454,46.0323283 C3.40797428,43.7130653 2.03461151,40.5871022 2.03461151,36.5536013 C2.03461151,32.4696817 3.7640313,29.1420436 7.22287087,26.520268 C10.6817104,23.8984925 15.2087211,22.5876047 20.7530374,22.5876047 C26.7551414,22.5876047 31.638209,23.99933 35.2496444,26.8731993 C38.9119452,29.7470687 40.7430955,33.5788945 40.7430955,38.4190955 L37.8946394,38.4190955 C37.8946394,34.6881072 36.3178155,31.6125628 33.1641676,29.0916248 C30.0105198,26.6211055 25.8395662,25.3606365 20.7530374,25.3606365 C15.8699698,25.3606365 12.0042079,26.4194305 9.10488652,28.5370184 C6.2564304,30.6546064 4.83220234,33.2763819 4.83220234,36.4527638 C4.83220234,38.9232831 5.34085522,40.8896147 6.40902626,42.30134 C7.47719731,43.7130653 9.20661709,44.9735343 11.6481509,46.1331658 C14.0388194,47.2927973 17.5485243,48.4020101 22.1772655,49.4103853 C26.8060067,50.4691792 30.4174421,51.7296482 33.1133024,53.1413735 C35.8091626,54.5530988 37.7420436,56.2673367 38.9628105,58.2336683 C40.1835774,60.2 40.7939608,62.6201005 40.7939608,65.4435511 C40.7939608,69.8299832 38.9628105,73.3088777 35.351375,75.981072 C31.7399396,78.6532663 27.0094678,79.9641541 21.1599597,79.9641541 C14.9035293,79.9641541 9.81700055,78.5524288 6.00210396,75.7289782 C2.18720738,72.9055276 0.254326439,69.2753769 0.254326439,64.838526 L3.05191727,64.838526 C3.30624371,68.7207705 5.03566349,71.7458961 8.24017662,73.9139028 C11.4446898,76.0819095 15.7173739,77.1407035 21.1599597,77.1407035 C26.1447579,77.1407035 30.213981,75.981072 33.3167635,73.661809 C36.3686808,71.4938023 37.9455047,68.6703518 37.9455047,65.3931323 Z"></path>
                        <path d="M50.0514432,6.2519263 C50.0514432,5.44522613 50.3057696,4.78978224 50.8652878,4.23517588 C51.424806,3.68056951 52.0860547,3.37805695 52.8998993,3.37805695 C53.7137439,3.37805695 54.3749927,3.68056951 54.9345108,4.23517588 C55.494029,4.78978224 55.7992207,5.49564489 55.7992207,6.2519263 C55.7992207,7.05862647 55.494029,7.71407035 54.9345108,8.26867672 C54.3749927,8.82328308 53.6628786,9.07537688 52.8998993,9.07537688 C52.0860547,9.07537688 51.424806,8.82328308 50.8652878,8.26867672 C50.3057696,7.71407035 50.0514432,7.05862647 50.0514432,6.2519263 Z M54.2732621,78.9557789 L51.4756713,78.9557789 L51.4756713,23.5959799 L54.2732621,23.5959799 L54.2732621,78.9557789 Z"></path>
                        <path d="M107.325757,78.9557789 L104.528166,78.9557789 L104.528166,41.7467337 C104.477301,36.20067 103.256534,32.0663317 100.815,29.3437186 C98.3734666,26.6211055 94.5077047,25.259799 89.2177148,25.259799 C83.063015,25.259799 78.0782168,27.9319933 74.1615896,33.2763819 C71.8726517,36.5031826 70.2958277,40.0324958 69.5837137,43.9147404 L69.5837137,78.9053601 L66.7352576,78.9053601 L66.7352576,23.5959799 L69.5837137,23.5959799 L69.5837137,36.7048576 C71.4657294,32.2175879 74.1615896,28.7386935 77.6712945,26.2681742 C81.1809993,23.7976549 85.0976265,22.5876047 89.3703107,22.5876047 C94.0499172,22.5876047 97.8648137,23.5959799 100.865866,25.6631491 C103.866918,27.7303183 105.799799,31.0579564 106.715374,35.6964824 C108.343063,31.7134003 111.038923,28.5370184 114.752089,26.1673367 C118.465255,23.7976549 122.636209,22.5876047 127.26495,22.5876047 C133.267054,22.5876047 137.794065,24.3018425 140.744251,27.6798995 C143.694438,31.0579564 145.169531,36.1502513 145.220397,42.9063652 L145.220397,79.0566164 L142.422806,79.0566164 L142.422806,43.158459 C142.422806,37.1082077 141.202039,32.5705193 138.70964,29.6966499 C136.268106,26.7723618 132.402344,25.3606365 127.112354,25.4110553 C120.347271,25.5118928 114.95555,28.1840871 110.988058,33.4276382 C108.69912,36.4527638 107.478353,39.3770519 107.274892,42.2509213 L107.274892,78.9557789 L107.325757,78.9557789 Z"></path>
                        <path d="M199.595389,51.780067 C199.595389,60.401675 197.713374,67.2586265 193.949342,72.3509213 C190.185311,77.4432161 185.098782,79.9641541 178.588025,79.9641541 C174.366207,79.9641541 170.602175,79.1070352 167.295932,77.3927973 C163.989688,75.6785595 161.395558,73.3088777 159.564408,70.3341709 L159.564408,100.232496 L156.766817,100.232496 L156.766817,23.5959799 L159.564408,23.5959799 L159.564408,33.478057 C161.497289,29.9487437 164.091418,27.2765494 167.346797,25.4110553 C170.602175,23.5455611 174.315341,22.5876047 178.486295,22.5876047 C185.047917,22.5876047 190.185311,25.058124 193.949342,30.0495812 C197.713374,35.0410385 199.595389,41.9988275 199.595389,50.9733668 L199.595389,51.780067 Z M196.746933,50.721273 C196.746933,42.7551089 195.170109,36.5536013 191.965596,32.0663317 C188.761083,27.579062 184.335803,25.3102178 178.53716,25.3102178 C173.857554,25.3102178 169.890061,26.520268 166.583818,28.9403685 C163.328439,31.360469 160.937771,34.7889447 159.513543,39.3266332 L159.513543,65.241876 C160.937771,69.0737018 163.328439,72.0484087 166.634683,74.1155779 C169.940927,76.2331658 173.908419,77.241541 178.638891,77.241541 C184.335803,77.241541 188.811948,74.9726968 191.965596,70.4854271 C195.170109,65.9477387 196.746933,59.3932998 196.746933,50.721273 Z"></path>
                        <polygon points="212.97296 78.9557789 210.175369 78.9557789 210.175369 0.302512563 212.97296 0.302512563"></polygon>
                        <path d="M246.086262,80.0145729 C241.559252,80.0145729 237.439163,78.8045226 233.675132,76.3844221 C229.911101,73.9643216 226.960914,70.6871022 224.824572,66.4519263 C222.68823,62.2671692 221.620059,57.5782245 221.620059,52.4859296 L221.620059,50.1666667 C221.620059,45.0239531 222.637365,40.3350084 224.722842,36.0998325 C226.808318,31.8142379 229.605909,28.4865997 233.26821,26.1169179 C236.879645,23.7472362 240.847138,22.5371859 245.119822,22.5371859 C251.376252,22.5371859 256.462781,24.7556114 260.430274,29.1420436 C264.397766,33.5284757 266.381512,39.3266332 266.381512,46.4860972 L266.381512,49.4103853 L224.468515,49.4103853 L224.468515,52.4355109 C224.468515,56.9227806 225.434956,61.1075377 227.316971,64.9393635 C229.249852,68.7711893 231.843982,71.7963149 235.201091,73.9643216 C238.5582,76.1323283 242.220501,77.241541 246.137128,77.241541 C249.901159,77.241541 253.105672,76.6365159 255.699802,75.3760469 C258.344797,74.1155779 260.6846,72.2500838 262.719212,69.678727 L264.702958,71.0400335 C260.481139,76.9894472 254.275574,80.0145729 246.086262,80.0145729 Z M245.068957,25.3102178 C239.626371,25.3102178 234.99763,27.3269682 231.233598,31.3100503 C227.469567,35.3435511 225.231494,40.4358459 224.570246,46.6373534 L263.533056,46.6373534 L263.533056,45.9819095 C263.533056,42.2509213 262.719212,38.721608 261.142388,35.4948074 C259.565564,32.2680067 257.327491,29.7470687 254.5299,27.9824121 C251.681444,26.2177554 248.527796,25.3102178 245.068957,25.3102178 Z"></path>
                    </g>
                    <g id="Shape">
                        <path d="M37.9455047,65.3931323 C37.9455047,58.6874372 32.1468619,54.09933 20.6004416,51.6792295 C13.6318971,50.2170854 8.79969479,48.3011725 6.10383454,46.0323283 C3.40797428,43.7130653 2.03461151,40.5871022 2.03461151,36.5536013 C2.03461151,32.4696817 3.7640313,29.1420436 7.22287087,26.520268 C10.6817104,23.8984925 15.2087211,22.5876047 20.7530374,22.5876047 C26.7551414,22.5876047 31.638209,23.99933 35.2496444,26.8731993 C38.9119452,29.7470687 40.7430955,33.5788945 40.7430955,38.4190955 L37.8946394,38.4190955 C37.8946394,34.6881072 36.3178155,31.6125628 33.1641676,29.0916248 C30.0105198,26.6211055 25.8395662,25.3606365 20.7530374,25.3606365 C15.8699698,25.3606365 12.0042079,26.4194305 9.10488652,28.5370184 C6.2564304,30.6546064 4.83220234,33.2763819 4.83220234,36.4527638 C4.83220234,38.9232831 5.34085522,40.8896147 6.40902626,42.30134 C7.47719731,43.7130653 9.20661709,44.9735343 11.6481509,46.1331658 C14.0388194,47.2927973 17.5485243,48.4020101 22.1772655,49.4103853 C26.8060067,50.4691792 30.4174421,51.7296482 33.1133024,53.1413735 C35.8091626,54.5530988 37.7420436,56.2673367 38.9628105,58.2336683 C40.1835774,60.2 40.7939608,62.6201005 40.7939608,65.4435511 C40.7939608,69.8299832 38.9628105,73.3088777 35.351375,75.981072 C31.7399396,78.6532663 27.0094678,79.9641541 21.1599597,79.9641541 C14.9035293,79.9641541 9.81700055,78.5524288 6.00210396,75.7289782 C2.18720738,72.9055276 0.254326439,69.2753769 0.254326439,64.838526 L3.05191727,64.838526 C3.30624371,68.7207705 5.03566349,71.7458961 8.24017662,73.9139028 C11.4446898,76.0819095 15.7173739,77.1407035 21.1599597,77.1407035 C26.1447579,77.1407035 30.213981,75.981072 33.3167635,73.661809 C36.3686808,71.4938023 37.9455047,68.6703518 37.9455047,65.3931323 Z" fill="url(#linearGradient-1)"></path>
                        <path d="M50.0514432,6.2519263 C50.0514432,5.44522613 50.3057696,4.78978224 50.8652878,4.23517588 C51.424806,3.68056951 52.0860547,3.37805695 52.8998993,3.37805695 C53.7137439,3.37805695 54.3749927,3.68056951 54.9345108,4.23517588 C55.494029,4.78978224 55.7992207,5.49564489 55.7992207,6.2519263 C55.7992207,7.05862647 55.494029,7.71407035 54.9345108,8.26867672 C54.3749927,8.82328308 53.6628786,9.07537688 52.8998993,9.07537688 C52.0860547,9.07537688 51.424806,8.82328308 50.8652878,8.26867672 C50.3057696,7.71407035 50.0514432,7.05862647 50.0514432,6.2519263 Z M54.2732621,78.9557789 L51.4756713,78.9557789 L51.4756713,23.5959799 L54.2732621,23.5959799 L54.2732621,78.9557789 Z" fill="url(#linearGradient-2)"></path>
                        <path d="M107.325757,78.9557789 L104.528166,78.9557789 L104.528166,41.7467337 C104.477301,36.20067 103.256534,32.0663317 100.815,29.3437186 C98.3734666,26.6211055 94.5077047,25.259799 89.2177148,25.259799 C83.063015,25.259799 78.0782168,27.9319933 74.1615896,33.2763819 C71.8726517,36.5031826 70.2958277,40.0324958 69.5837137,43.9147404 L69.5837137,78.9053601 L66.7352576,78.9053601 L66.7352576,23.5959799 L69.5837137,23.5959799 L69.5837137,36.7048576 C71.4657294,32.2175879 74.1615896,28.7386935 77.6712945,26.2681742 C81.1809993,23.7976549 85.0976265,22.5876047 89.3703107,22.5876047 C94.0499172,22.5876047 97.8648137,23.5959799 100.865866,25.6631491 C103.866918,27.7303183 105.799799,31.0579564 106.715374,35.6964824 C108.343063,31.7134003 111.038923,28.5370184 114.752089,26.1673367 C118.465255,23.7976549 122.636209,22.5876047 127.26495,22.5876047 C133.267054,22.5876047 137.794065,24.3018425 140.744251,27.6798995 C143.694438,31.0579564 145.169531,36.1502513 145.220397,42.9063652 L145.220397,79.0566164 L142.422806,79.0566164 L142.422806,43.158459 C142.422806,37.1082077 141.202039,32.5705193 138.70964,29.6966499 C136.268106,26.7723618 132.402344,25.3606365 127.112354,25.4110553 C120.347271,25.5118928 114.95555,28.1840871 110.988058,33.4276382 C108.69912,36.4527638 107.478353,39.3770519 107.274892,42.2509213 L107.274892,78.9557789 L107.325757,78.9557789 Z" fill="url(#linearGradient-3)"></path>
                        <path d="M199.595389,51.780067 C199.595389,60.401675 197.713374,67.2586265 193.949342,72.3509213 C190.185311,77.4432161 185.098782,79.9641541 178.588025,79.9641541 C174.366207,79.9641541 170.602175,79.1070352 167.295932,77.3927973 C163.989688,75.6785595 161.395558,73.3088777 159.564408,70.3341709 L159.564408,100.232496 L156.766817,100.232496 L156.766817,23.5959799 L159.564408,23.5959799 L159.564408,33.478057 C161.497289,29.9487437 164.091418,27.2765494 167.346797,25.4110553 C170.602175,23.5455611 174.315341,22.5876047 178.486295,22.5876047 C185.047917,22.5876047 190.185311,25.058124 193.949342,30.0495812 C197.713374,35.0410385 199.595389,41.9988275 199.595389,50.9733668 L199.595389,51.780067 Z M196.746933,50.721273 C196.746933,42.7551089 195.170109,36.5536013 191.965596,32.0663317 C188.761083,27.579062 184.335803,25.3102178 178.53716,25.3102178 C173.857554,25.3102178 169.890061,26.520268 166.583818,28.9403685 C163.328439,31.360469 160.937771,34.7889447 159.513543,39.3266332 L159.513543,65.241876 C160.937771,69.0737018 163.328439,72.0484087 166.634683,74.1155779 C169.940927,76.2331658 173.908419,77.241541 178.638891,77.241541 C184.335803,77.241541 188.811948,74.9726968 191.965596,70.4854271 C195.170109,65.9477387 196.746933,59.3932998 196.746933,50.721273 Z" fill="url(#linearGradient-4)"></path>
                        <polygon fill="url(#linearGradient-5)" points="212.97296 78.9557789 210.175369 78.9557789 210.175369 0.302512563 212.97296 0.302512563"></polygon>
                        <path d="M246.086262,80.0145729 C241.559252,80.0145729 237.439163,78.8045226 233.675132,76.3844221 C229.911101,73.9643216 226.960914,70.6871022 224.824572,66.4519263 C222.68823,62.2671692 221.620059,57.5782245 221.620059,52.4859296 L221.620059,50.1666667 C221.620059,45.0239531 222.637365,40.3350084 224.722842,36.0998325 C226.808318,31.8142379 229.605909,28.4865997 233.26821,26.1169179 C236.879645,23.7472362 240.847138,22.5371859 245.119822,22.5371859 C251.376252,22.5371859 256.462781,24.7556114 260.430274,29.1420436 C264.397766,33.5284757 266.381512,39.3266332 266.381512,46.4860972 L266.381512,49.4103853 L224.468515,49.4103853 L224.468515,52.4355109 C224.468515,56.9227806 225.434956,61.1075377 227.316971,64.9393635 C229.249852,68.7711893 231.843982,71.7963149 235.201091,73.9643216 C238.5582,76.1323283 242.220501,77.241541 246.137128,77.241541 C249.901159,77.241541 253.105672,76.6365159 255.699802,75.3760469 C258.344797,74.1155779 260.6846,72.2500838 262.719212,69.678727 L264.702958,71.0400335 C260.481139,76.9894472 254.275574,80.0145729 246.086262,80.0145729 Z M245.068957,25.3102178 C239.626371,25.3102178 234.99763,27.3269682 231.233598,31.3100503 C227.469567,35.3435511 225.231494,40.4358459 224.570246,46.6373534 L263.533056,46.6373534 L263.533056,45.9819095 C263.533056,42.2509213 262.719212,38.721608 261.142388,35.4948074 C259.565564,32.2680067 257.327491,29.7470687 254.5299,27.9824121 C251.681444,26.2177554 248.527796,25.3102178 245.068957,25.3102178 Z" fill="url(#linearGradient-6)"></path>
                    </g>
                </g>
                <path d="M329.564208,22.5276998 C330.77678,22.5741898 331.787256,22.9461097 332.595638,23.6899496 C333.404019,24.4337895 333.80821,25.4565693 333.757686,26.7117992 C333.707162,27.967029 333.252447,28.9433188 332.393542,29.6871587 C331.534637,30.4309986 330.473637,30.7564286 329.261065,30.7099386 C328.048493,30.6634486 327.038016,30.2915286 326.229635,29.5011987 C325.421253,28.7573589 325.067587,27.734579 325.067587,26.4793492 C325.11811,25.2241194 325.522301,24.2478295 326.381206,23.5504796 C327.341159,22.8531297 328.351636,22.4812098 329.564208,22.5276998 Z M290.761905,29.5476887 L290.862952,25.1311394 L312.133486,25.0846494 L312.032438,29.5011987 L290.761905,29.5476887 Z" id="Shape" fill="#632678"></path>
                <path d="M284.670728,38.9047619 L344,38.9047619 L344,55.0940652 C344,59.8348581 342.914708,64.1217452 340.692445,67.8538588 C338.470181,71.6364063 335.317668,74.5615764 331.183224,76.679803 C327.048779,78.7980296 322.345849,79.8571429 317.074433,79.8571429 L311.596295,79.8571429 C306.273198,79.8571429 301.570268,78.7980296 297.487505,76.7302369 C293.404741,74.6120103 290.200547,71.6868403 287.978283,67.9042928 C285.75602,64.1217452 284.619048,59.7339901 284.619048,54.7914614 L284.619048,38.9047619 L284.670728,38.9047619 Z M339.762195,43.7968567 L288.908533,43.7968567 L288.908533,54.7914614 C288.908533,60.8939714 290.975755,65.7860662 295.110199,69.4677457 C299.244643,73.1494253 304.877823,75.0154821 311.958059,75.0154821 L317.177794,75.0154821 C323.999627,75.0154821 329.477765,73.1998593 333.560529,69.5686137 C337.643292,65.9373681 339.710514,61.1461412 339.762195,55.1949331 L339.762195,43.7968567 Z" id="Shape" fill="#632678"></path>
            </g>
        </g>
    </g>
</svg>