<?xml version="1.0" encoding="UTF-8"?>
<svg width="92px" height="142px" viewBox="0 0 92 142" version="1.1" xmlns="http://www.w3.org/2000/svg" xmlns:xlink="http://www.w3.org/1999/xlink">
    <!-- Generator: Sketch 51.2 (57519) - http://www.bohemiancoding.com/sketch -->
    <title>safe</title>
    <desc>Created with Sketch.</desc>
    <defs></defs>
    <g id="mobileAPPX" stroke="none" stroke-width="1" fill="none" fill-rule="evenodd">
        <g id="modalSucesso" transform="translate(-142.000000, -199.000000)" fill="#FFFFFF">
            <g id="safe" transform="translate(142.000000, 199.000000)">
                <path d="M82.9635,122.91459 C82.9635,128.857234 78.1288438,133.692168 72.1861992,133.692168 L19.0854102,133.692168 C13.1427656,133.692168 8.30810938,128.857512 8.30810938,122.91459 L8.30810938,70.5018906 C8.30810938,69.766375 8.90661719,69.1681445 9.64185547,69.1681445 L81.6297539,69.1681445 C82.3649922,69.1681445 82.9635,69.7666523 82.9635,70.5018906 L82.9635,122.91459 Z M59.5997852,34.5021172 L59.5997852,60.8603125 L31.6718242,60.8603125 L31.6718242,34.5021172 C31.6718242,26.8025 37.9361875,20.5381367 45.6358047,20.5381367 C53.3356992,20.5381367 59.5997852,26.8025 59.5997852,34.5021172 Z M19.2914766,34.6518828 C19.2914766,20.1257266 31.1093711,8.30783203 45.6355273,8.30783203 C60.1616836,8.30783203 71.9795781,20.1260039 71.9795781,34.6518828 L71.9795781,60.8603125 L67.9073398,60.8603125 L67.9073398,34.5021172 C67.9073398,22.2213359 57.9163086,12.2303047 45.6355273,12.2303047 C33.3547461,12.2303047 23.3637148,22.2213359 23.3637148,34.5021172 L23.3637148,60.8603125 L19.2911992,60.8603125 L19.2911992,34.6518828 L19.2914766,34.6518828 Z M81.6297539,60.8603125 L80.2876875,60.8603125 L80.2876875,34.6518828 C80.2876875,15.5448398 64.7428477,0 45.6358047,0 C26.5287617,0 10.9836445,15.5448398 10.9836445,34.6518828 L10.9836445,60.8603125 L9.64157813,60.8603125 C4.32517578,60.8603125 0,65.1857656 0,70.5018906 L0,122.91459 C0,133.438121 8.56187891,142 19.0851328,142 L72.1861992,142 C82.7097305,142 91.271332,133.438121 91.271332,122.91459 L91.271332,70.5018906 C91.271332,65.1857656 86.9464336,60.8603125 81.6297539,60.8603125 Z" id="Fill-1"></path>
                <path d="M55.2443789,90.0962266 L41.214668,103.078688 L36.6290664,98.4928086 C35.0068828,96.870625 32.376832,96.870625 30.7543711,98.4928086 C29.1321875,100.11527 29.1321875,102.745043 30.7543711,104.367504 L38.1658281,111.778961 C38.2010508,111.814184 38.2393242,111.844137 38.2756563,111.877973 C38.3266875,111.925676 38.3777188,111.973656 38.4306914,112.018309 C38.4875469,112.066289 38.5460664,112.110664 38.6048633,112.155316 C38.6597773,112.196918 38.7138594,112.23852 38.7704375,112.27707 C38.8322852,112.319227 38.8957969,112.357223 38.9595859,112.395496 C39.0158867,112.429332 39.0713555,112.464555 39.1287656,112.495617 C39.1967148,112.532504 39.2663281,112.564676 39.3359414,112.597125 C39.3916875,112.623195 39.4463242,112.651207 39.5029023,112.674781 C39.5780625,112.706121 39.6540547,112.731914 39.7306016,112.758816 C39.7841289,112.777121 39.8365469,112.798199 39.8906289,112.814563 C39.9735547,112.839801 40.0575898,112.859215 40.1419023,112.879184 C40.1907148,112.890832 40.2395273,112.905254 40.2888945,112.915238 C40.3837461,112.934098 40.479707,112.946578 40.5753906,112.958504 C40.6150508,112.963496 40.6544336,112.971816 40.6943711,112.975699 C40.8302695,112.989012 40.9664453,112.996223 41.1031758,112.996223 C41.1034531,112.996223 41.1034531,112.996223 41.1037305,112.996223 C41.1037305,112.996223 41.1040078,112.996223 41.1042852,112.996223 C41.2338047,112.996223 41.3636016,112.989844 41.4928438,112.977641 C41.5308398,112.974035 41.5685586,112.966547 41.6065547,112.962109 C41.6975234,112.951293 41.7884922,112.940199 41.8786289,112.923004 C41.926332,112.914129 41.9732031,112.900816 42.0206289,112.89 C42.1002266,112.871973 42.1801016,112.8545 42.2585898,112.831758 C42.3107305,112.816781 42.3617617,112.797645 42.4133477,112.780449 C42.4860117,112.756598 42.5586758,112.733023 42.6299531,112.704734 C42.6845898,112.683102 42.7375625,112.657863 42.7910898,112.634012 C42.8579297,112.604336 42.9247695,112.575215 42.9899453,112.541934 C43.0451367,112.513645 43.0989414,112.482027 43.1530234,112.451242 C43.2145938,112.41602 43.2761641,112.381352 43.336625,112.342801 C43.390707,112.308133 43.443125,112.270137 43.4960977,112.232695 C43.5537852,112.191926 43.61175,112.150879 43.6680508,112.106227 C43.7188047,112.066012 43.7678945,112.023578 43.8172617,111.980867 C43.8524844,111.950359 43.8896484,111.92318 43.9237617,111.891285 L60.8866602,96.1950156 C62.5706914,94.6368984 62.6721992,92.0085117 61.1143594,90.3247578 C59.5565195,88.6398945 56.9284102,88.537832 55.2443789,90.0962266" id="Fill-2"></path>
            </g>
        </g>
    </g>
</svg>